M48
; DRILL file {KiCad 8.0.5} date 2025-03-03T19:21:07-0500
; FORMAT={-:-/ absolute / metric / decimal}
; #@! TF.CreationDate,2025-03-03T19:21:07-05:00
; #@! TF.GenerationSoftware,Kicad,Pcbnew,8.0.5
; #@! TF.FileFunction,Plated,1,2,PTH
FMAT,2
METRIC
; #@! TA.AperFunction,Plated,PTH,ViaDrill
T1C0.300
; #@! TA.AperFunction,Plated,PTH,ComponentDrill
T2C0.600
; #@! TA.AperFunction,Plated,PTH,ComponentDrill
T3C0.850
; #@! TA.AperFunction,Plated,PTH,ComponentDrill
T4C0.991
; #@! TA.AperFunction,Plated,PTH,ComponentDrill
T5C1.000
; #@! TA.AperFunction,Plated,PTH,ComponentDrill
T6C1.100
; #@! TA.AperFunction,Plated,PTH,ComponentDrill
T7C1.295
%
G90
G05
T1
X139.68Y-75.09
X141.1Y-75.07
X144.57Y-63.05
X145.96Y-63.05
X146.92Y-67.8
X146.92Y-69.82
X147.28Y-63.05
X150.29Y-49.53
X150.3Y-52.83
X150.3Y-55.66
X152.11Y-65.87
X152.9Y-55.66
X153.43Y-74.2
X153.73Y-85.87
X154.61Y-74.18
X154.98Y-85.87
X155.33Y-55.64
X155.78Y-74.18
X156.04Y-70.95
X156.2Y-85.83
X156.359Y-80.331
X159.24Y-83.13
X160.1Y-55.56
X160.12Y-61.0
X162.47Y-49.15
X162.52Y-52.79
X162.55Y-55.51
X162.75Y-61.02
X163.07Y-74.33
X163.09Y-72.7
X163.67Y-69.08
X164.833Y-65.653
X164.98Y-73.51
X164.98Y-74.46
X165.153Y-66.817
X165.99Y-74.47
X166.0Y-73.51
X167.56Y-69.35
X168.64Y-70.91
X169.18Y-71.55
X174.83Y-48.89
X174.85Y-50.96
X174.85Y-53.21
X179.75Y-68.88
X179.75Y-77.32
X180.84Y-69.13
X181.05Y-58.14
X182.97Y-58.14
X183.134Y-73.406
X184.89Y-58.11
X185.69Y-68.97
X186.35Y-70.14
X187.78Y-50.19
X187.84Y-54.36
X187.88Y-56.64
X192.79Y-81.85
X194.65Y-78.01
X196.6Y-78.0
X198.6Y-65.5
X198.6Y-67.48
X198.64Y-60.72
X199.63Y-76.85
X199.64Y-77.99
X200.33Y-59.47
X201.39Y-75.25
X202.51Y-59.43
X202.8Y-75.22
X204.16Y-75.25
X204.47Y-59.4
T3
X154.07Y-51.845
X159.07Y-51.845
T4
X170.41Y-100.92
X171.68Y-98.38
X172.95Y-100.92
T5
X200.552Y-63.252
X200.552Y-65.752
X200.552Y-67.752
X200.552Y-70.252
T6
X169.16Y-94.25
X171.7Y-94.25
X174.24Y-94.25
X188.58Y-64.27
X188.58Y-66.81
X188.58Y-69.35
X192.08Y-64.27
X192.08Y-66.81
X192.08Y-69.35
X195.58Y-64.27
X195.58Y-66.81
X195.58Y-69.35
T7
X141.08Y-66.81
X141.08Y-71.81
X178.575Y-52.89
X183.575Y-52.89
T2
X153.07Y-49.495G85X153.07Y-48.795
G05
X160.07Y-49.495G85X160.07Y-48.795
G05
T5
X201.952Y-60.902G85X203.153Y-60.902
G05
X201.952Y-72.602G85X203.153Y-72.602
G05
M30
