G04 #@! TF.GenerationSoftware,KiCad,Pcbnew,8.0.5*
G04 #@! TF.CreationDate,2025-03-03T19:21:04-05:00*
G04 #@! TF.ProjectId,solar_power_manager,736f6c61-725f-4706-9f77-65725f6d616e,rev?*
G04 #@! TF.SameCoordinates,Original*
G04 #@! TF.FileFunction,Paste,Top*
G04 #@! TF.FilePolarity,Positive*
%FSLAX46Y46*%
G04 Gerber Fmt 4.6, Leading zero omitted, Abs format (unit mm)*
G04 Created by KiCad (PCBNEW 8.0.5) date 2025-03-03 19:21:04*
%MOMM*%
%LPD*%
G01*
G04 APERTURE LIST*
G04 Aperture macros list*
%AMRoundRect*
0 Rectangle with rounded corners*
0 $1 Rounding radius*
0 $2 $3 $4 $5 $6 $7 $8 $9 X,Y pos of 4 corners*
0 Add a 4 corners polygon primitive as box body*
4,1,4,$2,$3,$4,$5,$6,$7,$8,$9,$2,$3,0*
0 Add four circle primitives for the rounded corners*
1,1,$1+$1,$2,$3*
1,1,$1+$1,$4,$5*
1,1,$1+$1,$6,$7*
1,1,$1+$1,$8,$9*
0 Add four rect primitives between the rounded corners*
20,1,$1+$1,$2,$3,$4,$5,0*
20,1,$1+$1,$4,$5,$6,$7,0*
20,1,$1+$1,$6,$7,$8,$9,0*
20,1,$1+$1,$8,$9,$2,$3,0*%
G04 Aperture macros list end*
%ADD10RoundRect,0.250000X-2.000000X1.400000X-2.000000X-1.400000X2.000000X-1.400000X2.000000X1.400000X0*%
%ADD11RoundRect,0.237500X-0.237500X0.300000X-0.237500X-0.300000X0.237500X-0.300000X0.237500X0.300000X0*%
%ADD12RoundRect,0.250000X0.350000X0.450000X-0.350000X0.450000X-0.350000X-0.450000X0.350000X-0.450000X0*%
%ADD13RoundRect,0.250000X-0.412500X-0.650000X0.412500X-0.650000X0.412500X0.650000X-0.412500X0.650000X0*%
%ADD14RoundRect,0.250000X-0.325000X-0.450000X0.325000X-0.450000X0.325000X0.450000X-0.325000X0.450000X0*%
%ADD15RoundRect,0.243750X0.243750X0.456250X-0.243750X0.456250X-0.243750X-0.456250X0.243750X-0.456250X0*%
%ADD16RoundRect,0.250000X-0.650000X0.412500X-0.650000X-0.412500X0.650000X-0.412500X0.650000X0.412500X0*%
%ADD17RoundRect,0.250000X0.625000X-0.400000X0.625000X0.400000X-0.625000X0.400000X-0.625000X-0.400000X0*%
%ADD18RoundRect,0.250000X-0.435000X-0.715000X0.435000X-0.715000X0.435000X0.715000X-0.435000X0.715000X0*%
%ADD19RoundRect,0.050000X-0.362500X-0.050000X0.362500X-0.050000X0.362500X0.050000X-0.362500X0.050000X0*%
%ADD20RoundRect,0.250000X-0.450000X0.350000X-0.450000X-0.350000X0.450000X-0.350000X0.450000X0.350000X0*%
%ADD21RoundRect,0.250000X-0.400000X-0.625000X0.400000X-0.625000X0.400000X0.625000X-0.400000X0.625000X0*%
%ADD22RoundRect,0.250000X0.450000X-0.350000X0.450000X0.350000X-0.450000X0.350000X-0.450000X-0.350000X0*%
%ADD23RoundRect,0.162500X0.617500X0.162500X-0.617500X0.162500X-0.617500X-0.162500X0.617500X-0.162500X0*%
%ADD24RoundRect,0.200000X-0.750000X-0.200000X0.750000X-0.200000X0.750000X0.200000X-0.750000X0.200000X0*%
%ADD25RoundRect,0.250000X2.000000X-1.400000X2.000000X1.400000X-2.000000X1.400000X-2.000000X-1.400000X0*%
%ADD26RoundRect,0.237500X0.237500X-0.300000X0.237500X0.300000X-0.237500X0.300000X-0.237500X-0.300000X0*%
%ADD27RoundRect,0.250000X0.412500X0.650000X-0.412500X0.650000X-0.412500X-0.650000X0.412500X-0.650000X0*%
%ADD28RoundRect,0.243750X-0.243750X-0.456250X0.243750X-0.456250X0.243750X0.456250X-0.243750X0.456250X0*%
%ADD29R,2.794000X5.156200*%
%ADD30RoundRect,0.250000X0.450000X-0.325000X0.450000X0.325000X-0.450000X0.325000X-0.450000X-0.325000X0*%
%ADD31RoundRect,0.162500X-0.162500X0.617500X-0.162500X-0.617500X0.162500X-0.617500X0.162500X0.617500X0*%
%ADD32RoundRect,0.250000X0.650000X-0.412500X0.650000X0.412500X-0.650000X0.412500X-0.650000X-0.412500X0*%
%ADD33R,1.000000X1.250000*%
%ADD34RoundRect,0.250000X-0.350000X-0.450000X0.350000X-0.450000X0.350000X0.450000X-0.350000X0.450000X0*%
%ADD35RoundRect,0.250000X-0.625000X0.400000X-0.625000X-0.400000X0.625000X-0.400000X0.625000X0.400000X0*%
%ADD36R,0.400000X1.350000*%
%ADD37R,1.500000X1.900000*%
G04 APERTURE END LIST*
D10*
X189077500Y-81860000D03*
X180277500Y-81860000D03*
D11*
X190080000Y-74947500D03*
X190080000Y-76672500D03*
D12*
X175580000Y-66810000D03*
X173580000Y-66810000D03*
X196580000Y-79310000D03*
X194580000Y-79310000D03*
D13*
X182017500Y-74810000D03*
X185142500Y-74810000D03*
D14*
X175555000Y-63310000D03*
X177605000Y-63310000D03*
D15*
X196517500Y-81810000D03*
X194642500Y-81810000D03*
D16*
X171070000Y-69717500D03*
X171070000Y-72842500D03*
D17*
X148580000Y-69360000D03*
X148580000Y-66260000D03*
D18*
X165580000Y-71310000D03*
D19*
X164117500Y-70560000D03*
X164117500Y-71060000D03*
X164117500Y-71560000D03*
X164117500Y-72060000D03*
X167042500Y-72060000D03*
X167042500Y-71560000D03*
X167042500Y-71060000D03*
X167042500Y-70560000D03*
D20*
X161580000Y-68810000D03*
X161580000Y-70810000D03*
D13*
X182017500Y-77310000D03*
X185142500Y-77310000D03*
D21*
X182030000Y-63310000D03*
X185130000Y-63310000D03*
D22*
X168080000Y-58810000D03*
X168080000Y-56810000D03*
D17*
X159080000Y-80360000D03*
X159080000Y-77260000D03*
D12*
X163270000Y-83110000D03*
X161270000Y-83110000D03*
D14*
X166555000Y-66810000D03*
X168605000Y-66810000D03*
D23*
X177930000Y-71260000D03*
X177930000Y-70310000D03*
X177930000Y-69360000D03*
X175230000Y-69360000D03*
X175230000Y-70310000D03*
X175230000Y-71260000D03*
D24*
X171110000Y-56900000D03*
X171110000Y-58800000D03*
X174110000Y-57850000D03*
X195580000Y-74860000D03*
X195580000Y-76760000D03*
X198580000Y-75810000D03*
D13*
X170107500Y-103640000D03*
X173232500Y-103640000D03*
D25*
X152680000Y-63310000D03*
X161480000Y-63310000D03*
D21*
X182030000Y-66810000D03*
X185130000Y-66810000D03*
D26*
X161580000Y-74672500D03*
X161580000Y-72947500D03*
D27*
X156142500Y-81810000D03*
X153017500Y-81810000D03*
D12*
X180080000Y-66810000D03*
X178080000Y-66810000D03*
D28*
X166642500Y-64310000D03*
X168517500Y-64310000D03*
D29*
X168518000Y-79120000D03*
X175122000Y-79120000D03*
D30*
X148580000Y-73335000D03*
X148580000Y-71285000D03*
D11*
X173080000Y-71117500D03*
X173080000Y-72842500D03*
D31*
X184030000Y-69460000D03*
X183080000Y-69460000D03*
X182130000Y-69460000D03*
X182130000Y-72160000D03*
X184030000Y-72160000D03*
D32*
X159080000Y-75372500D03*
X159080000Y-72247500D03*
D33*
X149900000Y-83365000D03*
X149900000Y-75615000D03*
D34*
X166590000Y-61910000D03*
X168590000Y-61910000D03*
D35*
X192580000Y-74260000D03*
X192580000Y-77360000D03*
D16*
X187580000Y-74247500D03*
X187580000Y-77372500D03*
D24*
X142180000Y-77480000D03*
X142180000Y-79380000D03*
X145180000Y-78430000D03*
D31*
X155530000Y-76460000D03*
X154580000Y-76460000D03*
X153630000Y-76460000D03*
X153630000Y-79160000D03*
X154580000Y-79160000D03*
X155530000Y-79160000D03*
D36*
X157870000Y-51820000D03*
X157220000Y-51820000D03*
X156570000Y-51820000D03*
X155920000Y-51820000D03*
X155270000Y-51820000D03*
D37*
X157570000Y-49145000D03*
X155570000Y-49145000D03*
M02*
