G04 #@! TF.GenerationSoftware,KiCad,Pcbnew,8.0.5*
G04 #@! TF.CreationDate,2025-03-03T19:21:05-05:00*
G04 #@! TF.ProjectId,solar_power_manager,736f6c61-725f-4706-9f77-65725f6d616e,rev?*
G04 #@! TF.SameCoordinates,Original*
G04 #@! TF.FileFunction,Soldermask,Top*
G04 #@! TF.FilePolarity,Negative*
%FSLAX46Y46*%
G04 Gerber Fmt 4.6, Leading zero omitted, Abs format (unit mm)*
G04 Created by KiCad (PCBNEW 8.0.5) date 2025-03-03 19:21:05*
%MOMM*%
%LPD*%
G01*
G04 APERTURE LIST*
G04 Aperture macros list*
%AMRoundRect*
0 Rectangle with rounded corners*
0 $1 Rounding radius*
0 $2 $3 $4 $5 $6 $7 $8 $9 X,Y pos of 4 corners*
0 Add a 4 corners polygon primitive as box body*
4,1,4,$2,$3,$4,$5,$6,$7,$8,$9,$2,$3,0*
0 Add four circle primitives for the rounded corners*
1,1,$1+$1,$2,$3*
1,1,$1+$1,$4,$5*
1,1,$1+$1,$6,$7*
1,1,$1+$1,$8,$9*
0 Add four rect primitives between the rounded corners*
20,1,$1+$1,$2,$3,$4,$5,0*
20,1,$1+$1,$4,$5,$6,$7,0*
20,1,$1+$1,$6,$7,$8,$9,0*
20,1,$1+$1,$8,$9,$2,$3,0*%
G04 Aperture macros list end*
%ADD10C,0.788500*%
%ADD11C,0.010000*%
%ADD12C,3.200000*%
%ADD13RoundRect,0.250000X-2.000000X1.400000X-2.000000X-1.400000X2.000000X-1.400000X2.000000X1.400000X0*%
%ADD14RoundRect,0.237500X-0.237500X0.300000X-0.237500X-0.300000X0.237500X-0.300000X0.237500X0.300000X0*%
%ADD15RoundRect,0.250000X0.350000X0.450000X-0.350000X0.450000X-0.350000X-0.450000X0.350000X-0.450000X0*%
%ADD16RoundRect,0.250000X-0.412500X-0.650000X0.412500X-0.650000X0.412500X0.650000X-0.412500X0.650000X0*%
%ADD17RoundRect,0.250000X-0.325000X-0.450000X0.325000X-0.450000X0.325000X0.450000X-0.325000X0.450000X0*%
%ADD18RoundRect,0.243750X0.243750X0.456250X-0.243750X0.456250X-0.243750X-0.456250X0.243750X-0.456250X0*%
%ADD19RoundRect,0.250000X-0.650000X0.412500X-0.650000X-0.412500X0.650000X-0.412500X0.650000X0.412500X0*%
%ADD20C,1.803400*%
%ADD21RoundRect,0.250000X0.625000X-0.400000X0.625000X0.400000X-0.625000X0.400000X-0.625000X-0.400000X0*%
%ADD22RoundRect,0.050000X-0.362500X-0.050000X0.362500X-0.050000X0.362500X0.050000X-0.362500X0.050000X0*%
%ADD23R,1.700000X2.400000*%
%ADD24RoundRect,0.250000X-0.450000X0.350000X-0.450000X-0.350000X0.450000X-0.350000X0.450000X0.350000X0*%
%ADD25C,1.854000*%
%ADD26RoundRect,0.250000X-0.400000X-0.625000X0.400000X-0.625000X0.400000X0.625000X-0.400000X0.625000X0*%
%ADD27RoundRect,0.250000X0.450000X-0.350000X0.450000X0.350000X-0.450000X0.350000X-0.450000X-0.350000X0*%
%ADD28RoundRect,0.162500X0.617500X0.162500X-0.617500X0.162500X-0.617500X-0.162500X0.617500X-0.162500X0*%
%ADD29RoundRect,0.200000X-0.750000X-0.200000X0.750000X-0.200000X0.750000X0.200000X-0.750000X0.200000X0*%
%ADD30RoundRect,0.250000X2.000000X-1.400000X2.000000X1.400000X-2.000000X1.400000X-2.000000X-1.400000X0*%
%ADD31RoundRect,0.237500X0.237500X-0.300000X0.237500X0.300000X-0.237500X0.300000X-0.237500X-0.300000X0*%
%ADD32RoundRect,0.250000X0.412500X0.650000X-0.412500X0.650000X-0.412500X-0.650000X0.412500X-0.650000X0*%
%ADD33RoundRect,0.243750X-0.243750X-0.456250X0.243750X-0.456250X0.243750X0.456250X-0.243750X0.456250X0*%
%ADD34R,2.794000X5.156200*%
%ADD35RoundRect,0.250000X0.450000X-0.325000X0.450000X0.325000X-0.450000X0.325000X-0.450000X-0.325000X0*%
%ADD36RoundRect,0.162500X-0.162500X0.617500X-0.162500X-0.617500X0.162500X-0.617500X0.162500X0.617500X0*%
%ADD37RoundRect,0.250000X0.650000X-0.412500X0.650000X0.412500X-0.650000X0.412500X-0.650000X-0.412500X0*%
%ADD38R,1.000000X1.250000*%
%ADD39RoundRect,0.250000X-0.350000X-0.450000X0.350000X-0.450000X0.350000X0.450000X-0.350000X0.450000X0*%
%ADD40RoundRect,0.250000X-0.625000X0.400000X-0.625000X-0.400000X0.625000X-0.400000X0.625000X0.400000X0*%
%ADD41RoundRect,0.102000X-0.749300X-0.749300X0.749300X-0.749300X0.749300X0.749300X-0.749300X0.749300X0*%
%ADD42C,1.702600*%
%ADD43C,1.000000*%
%ADD44RoundRect,0.102000X0.754000X-0.754000X0.754000X0.754000X-0.754000X0.754000X-0.754000X-0.754000X0*%
%ADD45C,1.712000*%
%ADD46O,3.220000X1.712000*%
%ADD47C,0.600000*%
G04 APERTURE END LIST*
D10*
X154464250Y-51845000D02*
G75*
G02*
X153675750Y-51845000I-394250J0D01*
G01*
X153675750Y-51845000D02*
G75*
G02*
X154464250Y-51845000I394250J0D01*
G01*
X159464250Y-51845000D02*
G75*
G02*
X158675750Y-51845000I-394250J0D01*
G01*
X158675750Y-51845000D02*
G75*
G02*
X159464250Y-51845000I394250J0D01*
G01*
D11*
X155533500Y-52558500D02*
X155006500Y-52558500D01*
X155006500Y-51081500D01*
X155533500Y-51081500D01*
X155533500Y-52558500D01*
G36*
X155533500Y-52558500D02*
G01*
X155006500Y-52558500D01*
X155006500Y-51081500D01*
X155533500Y-51081500D01*
X155533500Y-52558500D01*
G37*
X156183500Y-52558500D02*
X155656500Y-52558500D01*
X155656500Y-51081500D01*
X156183500Y-51081500D01*
X156183500Y-52558500D01*
G36*
X156183500Y-52558500D02*
G01*
X155656500Y-52558500D01*
X155656500Y-51081500D01*
X156183500Y-51081500D01*
X156183500Y-52558500D01*
G37*
X156383500Y-50158500D02*
X154756500Y-50158500D01*
X154756500Y-48131500D01*
X156383500Y-48131500D01*
X156383500Y-50158500D01*
G36*
X156383500Y-50158500D02*
G01*
X154756500Y-50158500D01*
X154756500Y-48131500D01*
X156383500Y-48131500D01*
X156383500Y-50158500D01*
G37*
X156833500Y-52558500D02*
X156306500Y-52558500D01*
X156306500Y-51081500D01*
X156833500Y-51081500D01*
X156833500Y-52558500D01*
G36*
X156833500Y-52558500D02*
G01*
X156306500Y-52558500D01*
X156306500Y-51081500D01*
X156833500Y-51081500D01*
X156833500Y-52558500D01*
G37*
X157483500Y-52558500D02*
X156956500Y-52558500D01*
X156956500Y-51081500D01*
X157483500Y-51081500D01*
X157483500Y-52558500D01*
G36*
X157483500Y-52558500D02*
G01*
X156956500Y-52558500D01*
X156956500Y-51081500D01*
X157483500Y-51081500D01*
X157483500Y-52558500D01*
G37*
X158133500Y-52558500D02*
X157606500Y-52558500D01*
X157606500Y-51081500D01*
X158133500Y-51081500D01*
X158133500Y-52558500D01*
G36*
X158133500Y-52558500D02*
G01*
X157606500Y-52558500D01*
X157606500Y-51081500D01*
X158133500Y-51081500D01*
X158133500Y-52558500D01*
G37*
X158383500Y-50158500D02*
X156756500Y-50158500D01*
X156756500Y-48131500D01*
X158383500Y-48131500D01*
X158383500Y-50158500D01*
G36*
X158383500Y-50158500D02*
G01*
X156756500Y-50158500D01*
X156756500Y-48131500D01*
X158383500Y-48131500D01*
X158383500Y-50158500D01*
G37*
X154334000Y-50158000D02*
X152970000Y-50158000D01*
X152941000Y-50158000D01*
X152911000Y-50155000D01*
X152882000Y-50152000D01*
X152853000Y-50146000D01*
X152824000Y-50139000D01*
X152796000Y-50131000D01*
X152768000Y-50121000D01*
X152741000Y-50110000D01*
X152714000Y-50097000D01*
X152688000Y-50083000D01*
X152663000Y-50068000D01*
X152639000Y-50051000D01*
X152615000Y-50033000D01*
X152593000Y-50014000D01*
X152572000Y-49993000D01*
X152551000Y-49972000D01*
X152532000Y-49950000D01*
X152514000Y-49926000D01*
X152497000Y-49902000D01*
X152482000Y-49877000D01*
X152468000Y-49851000D01*
X152455000Y-49824000D01*
X152444000Y-49797000D01*
X152434000Y-49769000D01*
X152426000Y-49741000D01*
X152419000Y-49712000D01*
X152413000Y-49683000D01*
X152410000Y-49654000D01*
X152407000Y-49624000D01*
X152407000Y-49595000D01*
X152407000Y-48695000D01*
X152407000Y-48666000D01*
X152410000Y-48636000D01*
X152413000Y-48607000D01*
X152419000Y-48578000D01*
X152426000Y-48549000D01*
X152434000Y-48521000D01*
X152444000Y-48493000D01*
X152455000Y-48466000D01*
X152468000Y-48439000D01*
X152482000Y-48413000D01*
X152497000Y-48388000D01*
X152514000Y-48364000D01*
X152532000Y-48340000D01*
X152551000Y-48318000D01*
X152572000Y-48297000D01*
X152593000Y-48276000D01*
X152615000Y-48257000D01*
X152639000Y-48239000D01*
X152663000Y-48222000D01*
X152688000Y-48207000D01*
X152714000Y-48193000D01*
X152741000Y-48180000D01*
X152768000Y-48169000D01*
X152796000Y-48159000D01*
X152824000Y-48151000D01*
X152853000Y-48144000D01*
X152882000Y-48138000D01*
X152911000Y-48135000D01*
X152941000Y-48132000D01*
X152970000Y-48131000D01*
X154333500Y-48131500D01*
X154334000Y-48131000D01*
X154334000Y-50158000D01*
G36*
X154334000Y-50158000D02*
G01*
X152970000Y-50158000D01*
X152941000Y-50158000D01*
X152911000Y-50155000D01*
X152882000Y-50152000D01*
X152853000Y-50146000D01*
X152824000Y-50139000D01*
X152796000Y-50131000D01*
X152768000Y-50121000D01*
X152741000Y-50110000D01*
X152714000Y-50097000D01*
X152688000Y-50083000D01*
X152663000Y-50068000D01*
X152639000Y-50051000D01*
X152615000Y-50033000D01*
X152593000Y-50014000D01*
X152572000Y-49993000D01*
X152551000Y-49972000D01*
X152532000Y-49950000D01*
X152514000Y-49926000D01*
X152497000Y-49902000D01*
X152482000Y-49877000D01*
X152468000Y-49851000D01*
X152455000Y-49824000D01*
X152444000Y-49797000D01*
X152434000Y-49769000D01*
X152426000Y-49741000D01*
X152419000Y-49712000D01*
X152413000Y-49683000D01*
X152410000Y-49654000D01*
X152407000Y-49624000D01*
X152407000Y-49595000D01*
X152407000Y-48695000D01*
X152407000Y-48666000D01*
X152410000Y-48636000D01*
X152413000Y-48607000D01*
X152419000Y-48578000D01*
X152426000Y-48549000D01*
X152434000Y-48521000D01*
X152444000Y-48493000D01*
X152455000Y-48466000D01*
X152468000Y-48439000D01*
X152482000Y-48413000D01*
X152497000Y-48388000D01*
X152514000Y-48364000D01*
X152532000Y-48340000D01*
X152551000Y-48318000D01*
X152572000Y-48297000D01*
X152593000Y-48276000D01*
X152615000Y-48257000D01*
X152639000Y-48239000D01*
X152663000Y-48222000D01*
X152688000Y-48207000D01*
X152714000Y-48193000D01*
X152741000Y-48180000D01*
X152768000Y-48169000D01*
X152796000Y-48159000D01*
X152824000Y-48151000D01*
X152853000Y-48144000D01*
X152882000Y-48138000D01*
X152911000Y-48135000D01*
X152941000Y-48132000D01*
X152970000Y-48131000D01*
X154333500Y-48131500D01*
X154334000Y-48131000D01*
X154334000Y-50158000D01*
G37*
X160199000Y-48132000D02*
X160229000Y-48135000D01*
X160258000Y-48138000D01*
X160287000Y-48144000D01*
X160316000Y-48151000D01*
X160344000Y-48159000D01*
X160372000Y-48169000D01*
X160399000Y-48180000D01*
X160426000Y-48193000D01*
X160452000Y-48207000D01*
X160477000Y-48222000D01*
X160501000Y-48239000D01*
X160525000Y-48257000D01*
X160547000Y-48276000D01*
X160568000Y-48297000D01*
X160589000Y-48318000D01*
X160608000Y-48340000D01*
X160626000Y-48364000D01*
X160643000Y-48388000D01*
X160658000Y-48413000D01*
X160672000Y-48439000D01*
X160685000Y-48466000D01*
X160696000Y-48493000D01*
X160706000Y-48521000D01*
X160714000Y-48549000D01*
X160721000Y-48578000D01*
X160727000Y-48607000D01*
X160730000Y-48636000D01*
X160733000Y-48666000D01*
X160733000Y-48695000D01*
X160733000Y-49595000D01*
X160733000Y-49624000D01*
X160730000Y-49654000D01*
X160727000Y-49683000D01*
X160721000Y-49712000D01*
X160714000Y-49741000D01*
X160706000Y-49769000D01*
X160696000Y-49797000D01*
X160685000Y-49824000D01*
X160672000Y-49851000D01*
X160658000Y-49877000D01*
X160643000Y-49902000D01*
X160626000Y-49926000D01*
X160608000Y-49950000D01*
X160589000Y-49972000D01*
X160568000Y-49993000D01*
X160547000Y-50014000D01*
X160525000Y-50033000D01*
X160501000Y-50051000D01*
X160477000Y-50068000D01*
X160452000Y-50083000D01*
X160426000Y-50097000D01*
X160399000Y-50110000D01*
X160372000Y-50121000D01*
X160344000Y-50131000D01*
X160316000Y-50139000D01*
X160287000Y-50146000D01*
X160258000Y-50152000D01*
X160229000Y-50155000D01*
X160199000Y-50158000D01*
X160170000Y-50158000D01*
X158806000Y-50158000D01*
X158806000Y-48131000D01*
X158806500Y-48131500D01*
X160170000Y-48131000D01*
X160199000Y-48132000D01*
G36*
X160199000Y-48132000D02*
G01*
X160229000Y-48135000D01*
X160258000Y-48138000D01*
X160287000Y-48144000D01*
X160316000Y-48151000D01*
X160344000Y-48159000D01*
X160372000Y-48169000D01*
X160399000Y-48180000D01*
X160426000Y-48193000D01*
X160452000Y-48207000D01*
X160477000Y-48222000D01*
X160501000Y-48239000D01*
X160525000Y-48257000D01*
X160547000Y-48276000D01*
X160568000Y-48297000D01*
X160589000Y-48318000D01*
X160608000Y-48340000D01*
X160626000Y-48364000D01*
X160643000Y-48388000D01*
X160658000Y-48413000D01*
X160672000Y-48439000D01*
X160685000Y-48466000D01*
X160696000Y-48493000D01*
X160706000Y-48521000D01*
X160714000Y-48549000D01*
X160721000Y-48578000D01*
X160727000Y-48607000D01*
X160730000Y-48636000D01*
X160733000Y-48666000D01*
X160733000Y-48695000D01*
X160733000Y-49595000D01*
X160733000Y-49624000D01*
X160730000Y-49654000D01*
X160727000Y-49683000D01*
X160721000Y-49712000D01*
X160714000Y-49741000D01*
X160706000Y-49769000D01*
X160696000Y-49797000D01*
X160685000Y-49824000D01*
X160672000Y-49851000D01*
X160658000Y-49877000D01*
X160643000Y-49902000D01*
X160626000Y-49926000D01*
X160608000Y-49950000D01*
X160589000Y-49972000D01*
X160568000Y-49993000D01*
X160547000Y-50014000D01*
X160525000Y-50033000D01*
X160501000Y-50051000D01*
X160477000Y-50068000D01*
X160452000Y-50083000D01*
X160426000Y-50097000D01*
X160399000Y-50110000D01*
X160372000Y-50121000D01*
X160344000Y-50131000D01*
X160316000Y-50139000D01*
X160287000Y-50146000D01*
X160258000Y-50152000D01*
X160229000Y-50155000D01*
X160199000Y-50158000D01*
X160170000Y-50158000D01*
X158806000Y-50158000D01*
X158806000Y-48131000D01*
X158806500Y-48131500D01*
X160170000Y-48131000D01*
X160199000Y-48132000D01*
G37*
D12*
X201960000Y-99360000D03*
X201960000Y-88040000D03*
D13*
X189077500Y-81860000D03*
X180277500Y-81860000D03*
D14*
X190080000Y-74947500D03*
X190080000Y-76672500D03*
D15*
X175580000Y-66810000D03*
X173580000Y-66810000D03*
X196580000Y-79310000D03*
X194580000Y-79310000D03*
D16*
X182017500Y-74810000D03*
X185142500Y-74810000D03*
D17*
X175555000Y-63310000D03*
X177605000Y-63310000D03*
D18*
X196517500Y-81810000D03*
X194642500Y-81810000D03*
D19*
X171070000Y-69717500D03*
X171070000Y-72842500D03*
D20*
X141080000Y-71810000D03*
X141080000Y-66810000D03*
D12*
X141660000Y-51570000D03*
D21*
X148580000Y-69360000D03*
X148580000Y-66260000D03*
D22*
X164117500Y-70560000D03*
X164117500Y-71060000D03*
X164117500Y-71560000D03*
X164117500Y-72060000D03*
X167042500Y-72060000D03*
X167042500Y-71560000D03*
X167042500Y-71060000D03*
X167042500Y-70560000D03*
D23*
X165580000Y-71310000D03*
D24*
X161580000Y-68810000D03*
X161580000Y-70810000D03*
D25*
X192080000Y-64270000D03*
X192080000Y-66810000D03*
X192080000Y-69350000D03*
D16*
X182017500Y-77310000D03*
X185142500Y-77310000D03*
D26*
X182030000Y-63310000D03*
X185130000Y-63310000D03*
D27*
X168080000Y-58810000D03*
X168080000Y-56810000D03*
D21*
X159080000Y-80360000D03*
X159080000Y-77260000D03*
D15*
X163270000Y-83110000D03*
X161270000Y-83110000D03*
D17*
X166555000Y-66810000D03*
X168605000Y-66810000D03*
D20*
X183575100Y-52890000D03*
X178575100Y-52890000D03*
D12*
X141660000Y-88090000D03*
D25*
X195580000Y-64270000D03*
X195580000Y-66810000D03*
X195580000Y-69350000D03*
D28*
X177930000Y-71260000D03*
X177930000Y-70310000D03*
X177930000Y-69360000D03*
X175230000Y-69360000D03*
X175230000Y-70310000D03*
X175230000Y-71260000D03*
D29*
X171110000Y-56900000D03*
X171110000Y-58800000D03*
X174110000Y-57850000D03*
X195580000Y-74860000D03*
X195580000Y-76760000D03*
X198580000Y-75810000D03*
D16*
X170107500Y-103640000D03*
X173232500Y-103640000D03*
D12*
X141660000Y-99360000D03*
D30*
X152680000Y-63310000D03*
X161480000Y-63310000D03*
D26*
X182030000Y-66810000D03*
X185130000Y-66810000D03*
D31*
X161580000Y-74672500D03*
X161580000Y-72947500D03*
D32*
X156142500Y-81810000D03*
X153017500Y-81810000D03*
D15*
X180080000Y-66810000D03*
X178080000Y-66810000D03*
D33*
X166642500Y-64310000D03*
X168517500Y-64310000D03*
D34*
X168518000Y-79120000D03*
X175122000Y-79120000D03*
D25*
X188580000Y-64270000D03*
X188580000Y-66810000D03*
X188580000Y-69350000D03*
D35*
X148580000Y-73335000D03*
X148580000Y-71285000D03*
D12*
X201960000Y-51570000D03*
D25*
X169160000Y-94250000D03*
X171700000Y-94250000D03*
X174240000Y-94250000D03*
D14*
X173080000Y-71117500D03*
X173080000Y-72842500D03*
D36*
X184030000Y-69460000D03*
X183080000Y-69460000D03*
X182130000Y-69460000D03*
X182130000Y-72160000D03*
X184030000Y-72160000D03*
D37*
X159080000Y-75372500D03*
X159080000Y-72247500D03*
D38*
X149900000Y-83365000D03*
X149900000Y-75615000D03*
D39*
X166590000Y-61910000D03*
X168590000Y-61910000D03*
D40*
X192580000Y-74260000D03*
X192580000Y-77360000D03*
D19*
X187580000Y-74247500D03*
X187580000Y-77372500D03*
D29*
X142180000Y-77480000D03*
X142180000Y-79380000D03*
X145180000Y-78430000D03*
D36*
X155530000Y-76460000D03*
X154580000Y-76460000D03*
X153630000Y-76460000D03*
X153630000Y-79160000D03*
X154580000Y-79160000D03*
X155530000Y-79160000D03*
D41*
X170410000Y-100920000D03*
D42*
X171680000Y-98380000D03*
X172950000Y-100920000D03*
D43*
X202552500Y-69027250D03*
X202552500Y-64477250D03*
D44*
X200552500Y-63252250D03*
D45*
X200552500Y-65752250D03*
X200552500Y-67752250D03*
X200552500Y-70252250D03*
D46*
X202552500Y-72602250D03*
X202552500Y-60902250D03*
D47*
X162750000Y-61020000D03*
X160120000Y-61000000D03*
X145960000Y-63050000D03*
X201390000Y-75250000D03*
X182970000Y-58140000D03*
X202800000Y-75220000D03*
X185690000Y-68970000D03*
X162550000Y-55510000D03*
X144570000Y-63050000D03*
X196600000Y-78000000D03*
X154980000Y-85870000D03*
X166000000Y-73510000D03*
X155330000Y-55640000D03*
X139680000Y-75090000D03*
X152900000Y-55660000D03*
X163090000Y-72700000D03*
X153430000Y-74200000D03*
X163070000Y-74330000D03*
X187840000Y-54360000D03*
X187880000Y-56640000D03*
X204470000Y-59400000D03*
X183134000Y-73406000D03*
X141100000Y-75070000D03*
X165990000Y-74470000D03*
X200330000Y-59470000D03*
X160100000Y-55560000D03*
X184890000Y-58110000D03*
X186350000Y-70140000D03*
X150300000Y-52830000D03*
X147280000Y-63050000D03*
X150290000Y-49530000D03*
X204160000Y-75250000D03*
X155780000Y-74180000D03*
X180840000Y-69130000D03*
X163670000Y-69080000D03*
X164980000Y-73510000D03*
X194650000Y-78010000D03*
X146920000Y-67800000D03*
X153730000Y-85870000D03*
X187780000Y-50190000D03*
X150300000Y-55660000D03*
X162470000Y-49150000D03*
X199630000Y-76850000D03*
X167560000Y-69350000D03*
X174850000Y-53210000D03*
X199640000Y-77990000D03*
X164980000Y-74460000D03*
X154610000Y-74180000D03*
X156200000Y-85830000D03*
X174850000Y-50960000D03*
X174830000Y-48890000D03*
X146920000Y-69820000D03*
X162520000Y-52790000D03*
X198640000Y-60720000D03*
X181050000Y-58140000D03*
X159240000Y-83130000D03*
X156359500Y-80330500D03*
X192790000Y-81850000D03*
X179750000Y-68880000D03*
X179750000Y-77320000D03*
X165153159Y-66816841D03*
X168640000Y-70910000D03*
X164833258Y-65653258D03*
X169180000Y-71550000D03*
X156040000Y-70950000D03*
X152110000Y-65870000D03*
X198600000Y-67480000D03*
X198600000Y-65500000D03*
X202510000Y-59430000D03*
M02*
