G04 #@! TF.GenerationSoftware,KiCad,Pcbnew,8.0.5*
G04 #@! TF.CreationDate,2025-03-03T19:21:04-05:00*
G04 #@! TF.ProjectId,solar_power_manager,736f6c61-725f-4706-9f77-65725f6d616e,rev?*
G04 #@! TF.SameCoordinates,Original*
G04 #@! TF.FileFunction,Copper,L2,Bot*
G04 #@! TF.FilePolarity,Positive*
%FSLAX46Y46*%
G04 Gerber Fmt 4.6, Leading zero omitted, Abs format (unit mm)*
G04 Created by KiCad (PCBNEW 8.0.5) date 2025-03-03 19:21:04*
%MOMM*%
%LPD*%
G01*
G04 APERTURE LIST*
G04 #@! TA.AperFunction,EtchedComponent*
%ADD10C,0.010000*%
G04 #@! TD*
G04 #@! TA.AperFunction,ComponentPad*
%ADD11C,1.803400*%
G04 #@! TD*
G04 #@! TA.AperFunction,ComponentPad*
%ADD12C,1.650000*%
G04 #@! TD*
G04 #@! TA.AperFunction,ComponentPad*
%ADD13R,1.498600X1.498600*%
G04 #@! TD*
G04 #@! TA.AperFunction,ComponentPad*
%ADD14C,1.498600*%
G04 #@! TD*
G04 #@! TA.AperFunction,ComponentPad*
%ADD15R,1.508000X1.508000*%
G04 #@! TD*
G04 #@! TA.AperFunction,ComponentPad*
%ADD16C,1.508000*%
G04 #@! TD*
G04 #@! TA.AperFunction,ComponentPad*
%ADD17O,3.016000X1.508000*%
G04 #@! TD*
G04 #@! TA.AperFunction,ComponentPad*
%ADD18C,1.450000*%
G04 #@! TD*
G04 #@! TA.AperFunction,ComponentPad*
%ADD19O,1.200000X1.900000*%
G04 #@! TD*
G04 #@! TA.AperFunction,ViaPad*
%ADD20C,0.600000*%
G04 #@! TD*
G04 #@! TA.AperFunction,Conductor*
%ADD21C,0.508000*%
G04 #@! TD*
G04 #@! TA.AperFunction,Conductor*
%ADD22C,0.381000*%
G04 #@! TD*
G04 #@! TA.AperFunction,Conductor*
%ADD23C,0.203200*%
G04 #@! TD*
G04 APERTURE END LIST*
D10*
X154270000Y-50095000D02*
X152970000Y-50095000D01*
X152944000Y-50094000D01*
X152918000Y-50092000D01*
X152892000Y-50089000D01*
X152866000Y-50084000D01*
X152841000Y-50078000D01*
X152815000Y-50071000D01*
X152791000Y-50062000D01*
X152767000Y-50052000D01*
X152743000Y-50041000D01*
X152720000Y-50028000D01*
X152698000Y-50014000D01*
X152676000Y-50000000D01*
X152655000Y-49984000D01*
X152635000Y-49967000D01*
X152616000Y-49949000D01*
X152598000Y-49930000D01*
X152581000Y-49910000D01*
X152565000Y-49889000D01*
X152551000Y-49867000D01*
X152537000Y-49845000D01*
X152524000Y-49822000D01*
X152513000Y-49798000D01*
X152503000Y-49774000D01*
X152494000Y-49750000D01*
X152487000Y-49724000D01*
X152481000Y-49699000D01*
X152476000Y-49673000D01*
X152473000Y-49647000D01*
X152471000Y-49621000D01*
X152470000Y-49595000D01*
X152470000Y-48695000D01*
X152471000Y-48669000D01*
X152473000Y-48643000D01*
X152476000Y-48617000D01*
X152481000Y-48591000D01*
X152487000Y-48566000D01*
X152494000Y-48540000D01*
X152503000Y-48516000D01*
X152513000Y-48492000D01*
X152524000Y-48468000D01*
X152537000Y-48445000D01*
X152551000Y-48423000D01*
X152565000Y-48401000D01*
X152581000Y-48380000D01*
X152598000Y-48360000D01*
X152616000Y-48341000D01*
X152635000Y-48323000D01*
X152655000Y-48306000D01*
X152676000Y-48290000D01*
X152698000Y-48276000D01*
X152720000Y-48262000D01*
X152743000Y-48249000D01*
X152767000Y-48238000D01*
X152791000Y-48228000D01*
X152815000Y-48219000D01*
X152841000Y-48212000D01*
X152866000Y-48206000D01*
X152892000Y-48201000D01*
X152918000Y-48198000D01*
X152944000Y-48196000D01*
X152970000Y-48195000D01*
X154270000Y-48195000D01*
X154270000Y-50095000D01*
G04 #@! TA.AperFunction,EtchedComponent*
G36*
X154270000Y-50095000D02*
G01*
X152970000Y-50095000D01*
X152944000Y-50094000D01*
X152918000Y-50092000D01*
X152892000Y-50089000D01*
X152866000Y-50084000D01*
X152841000Y-50078000D01*
X152815000Y-50071000D01*
X152791000Y-50062000D01*
X152767000Y-50052000D01*
X152743000Y-50041000D01*
X152720000Y-50028000D01*
X152698000Y-50014000D01*
X152676000Y-50000000D01*
X152655000Y-49984000D01*
X152635000Y-49967000D01*
X152616000Y-49949000D01*
X152598000Y-49930000D01*
X152581000Y-49910000D01*
X152565000Y-49889000D01*
X152551000Y-49867000D01*
X152537000Y-49845000D01*
X152524000Y-49822000D01*
X152513000Y-49798000D01*
X152503000Y-49774000D01*
X152494000Y-49750000D01*
X152487000Y-49724000D01*
X152481000Y-49699000D01*
X152476000Y-49673000D01*
X152473000Y-49647000D01*
X152471000Y-49621000D01*
X152470000Y-49595000D01*
X152470000Y-48695000D01*
X152471000Y-48669000D01*
X152473000Y-48643000D01*
X152476000Y-48617000D01*
X152481000Y-48591000D01*
X152487000Y-48566000D01*
X152494000Y-48540000D01*
X152503000Y-48516000D01*
X152513000Y-48492000D01*
X152524000Y-48468000D01*
X152537000Y-48445000D01*
X152551000Y-48423000D01*
X152565000Y-48401000D01*
X152581000Y-48380000D01*
X152598000Y-48360000D01*
X152616000Y-48341000D01*
X152635000Y-48323000D01*
X152655000Y-48306000D01*
X152676000Y-48290000D01*
X152698000Y-48276000D01*
X152720000Y-48262000D01*
X152743000Y-48249000D01*
X152767000Y-48238000D01*
X152791000Y-48228000D01*
X152815000Y-48219000D01*
X152841000Y-48212000D01*
X152866000Y-48206000D01*
X152892000Y-48201000D01*
X152918000Y-48198000D01*
X152944000Y-48196000D01*
X152970000Y-48195000D01*
X154270000Y-48195000D01*
X154270000Y-50095000D01*
G37*
G04 #@! TD.AperFunction*
X160196000Y-48196000D02*
X160222000Y-48198000D01*
X160248000Y-48201000D01*
X160274000Y-48206000D01*
X160299000Y-48212000D01*
X160325000Y-48219000D01*
X160349000Y-48228000D01*
X160373000Y-48238000D01*
X160397000Y-48249000D01*
X160420000Y-48262000D01*
X160442000Y-48276000D01*
X160464000Y-48290000D01*
X160485000Y-48306000D01*
X160505000Y-48323000D01*
X160524000Y-48341000D01*
X160542000Y-48360000D01*
X160559000Y-48380000D01*
X160575000Y-48401000D01*
X160589000Y-48423000D01*
X160603000Y-48445000D01*
X160616000Y-48468000D01*
X160627000Y-48492000D01*
X160637000Y-48516000D01*
X160646000Y-48540000D01*
X160653000Y-48566000D01*
X160659000Y-48591000D01*
X160664000Y-48617000D01*
X160667000Y-48643000D01*
X160669000Y-48669000D01*
X160670000Y-48695000D01*
X160670000Y-49595000D01*
X160669000Y-49621000D01*
X160667000Y-49647000D01*
X160664000Y-49673000D01*
X160659000Y-49699000D01*
X160653000Y-49724000D01*
X160646000Y-49750000D01*
X160637000Y-49774000D01*
X160627000Y-49798000D01*
X160616000Y-49822000D01*
X160603000Y-49845000D01*
X160589000Y-49867000D01*
X160575000Y-49889000D01*
X160559000Y-49910000D01*
X160542000Y-49930000D01*
X160524000Y-49949000D01*
X160505000Y-49967000D01*
X160485000Y-49984000D01*
X160464000Y-50000000D01*
X160442000Y-50014000D01*
X160420000Y-50028000D01*
X160397000Y-50041000D01*
X160373000Y-50052000D01*
X160349000Y-50062000D01*
X160325000Y-50071000D01*
X160299000Y-50078000D01*
X160274000Y-50084000D01*
X160248000Y-50089000D01*
X160222000Y-50092000D01*
X160196000Y-50094000D01*
X160170000Y-50095000D01*
X158870000Y-50095000D01*
X158870000Y-48195000D01*
X160170000Y-48195000D01*
X160196000Y-48196000D01*
G04 #@! TA.AperFunction,EtchedComponent*
G36*
X160196000Y-48196000D02*
G01*
X160222000Y-48198000D01*
X160248000Y-48201000D01*
X160274000Y-48206000D01*
X160299000Y-48212000D01*
X160325000Y-48219000D01*
X160349000Y-48228000D01*
X160373000Y-48238000D01*
X160397000Y-48249000D01*
X160420000Y-48262000D01*
X160442000Y-48276000D01*
X160464000Y-48290000D01*
X160485000Y-48306000D01*
X160505000Y-48323000D01*
X160524000Y-48341000D01*
X160542000Y-48360000D01*
X160559000Y-48380000D01*
X160575000Y-48401000D01*
X160589000Y-48423000D01*
X160603000Y-48445000D01*
X160616000Y-48468000D01*
X160627000Y-48492000D01*
X160637000Y-48516000D01*
X160646000Y-48540000D01*
X160653000Y-48566000D01*
X160659000Y-48591000D01*
X160664000Y-48617000D01*
X160667000Y-48643000D01*
X160669000Y-48669000D01*
X160670000Y-48695000D01*
X160670000Y-49595000D01*
X160669000Y-49621000D01*
X160667000Y-49647000D01*
X160664000Y-49673000D01*
X160659000Y-49699000D01*
X160653000Y-49724000D01*
X160646000Y-49750000D01*
X160637000Y-49774000D01*
X160627000Y-49798000D01*
X160616000Y-49822000D01*
X160603000Y-49845000D01*
X160589000Y-49867000D01*
X160575000Y-49889000D01*
X160559000Y-49910000D01*
X160542000Y-49930000D01*
X160524000Y-49949000D01*
X160505000Y-49967000D01*
X160485000Y-49984000D01*
X160464000Y-50000000D01*
X160442000Y-50014000D01*
X160420000Y-50028000D01*
X160397000Y-50041000D01*
X160373000Y-50052000D01*
X160349000Y-50062000D01*
X160325000Y-50071000D01*
X160299000Y-50078000D01*
X160274000Y-50084000D01*
X160248000Y-50089000D01*
X160222000Y-50092000D01*
X160196000Y-50094000D01*
X160170000Y-50095000D01*
X158870000Y-50095000D01*
X158870000Y-48195000D01*
X160170000Y-48195000D01*
X160196000Y-48196000D01*
G37*
G04 #@! TD.AperFunction*
D11*
X141080000Y-71810000D03*
X141080000Y-66810000D03*
D12*
X192080000Y-64270000D03*
X192080000Y-66810000D03*
X192080000Y-69350000D03*
D11*
X183575100Y-52890000D03*
X178575100Y-52890000D03*
D12*
X195580000Y-64270000D03*
X195580000Y-66810000D03*
X195580000Y-69350000D03*
X188580000Y-64270000D03*
X188580000Y-66810000D03*
X188580000Y-69350000D03*
X169160000Y-94250000D03*
X171700000Y-94250000D03*
X174240000Y-94250000D03*
D13*
X170410000Y-100920000D03*
D14*
X171680000Y-98380000D03*
X172950000Y-100920000D03*
D15*
X200552500Y-63252250D03*
D16*
X200552500Y-65752250D03*
X200552500Y-67752250D03*
X200552500Y-70252250D03*
D17*
X202552500Y-72602250D03*
X202552500Y-60902250D03*
D18*
X159070000Y-51845000D03*
X154070000Y-51845000D03*
D19*
X160070000Y-49145000D03*
X153070000Y-49145000D03*
D20*
X162750000Y-61020000D03*
X160120000Y-61000000D03*
X145960000Y-63050000D03*
X201390000Y-75250000D03*
X182970000Y-58140000D03*
X202800000Y-75220000D03*
X185690000Y-68970000D03*
X162550000Y-55510000D03*
X144570000Y-63050000D03*
X196600000Y-78000000D03*
X154980000Y-85870000D03*
X166000000Y-73510000D03*
X155330000Y-55640000D03*
X139680000Y-75090000D03*
X152900000Y-55660000D03*
X163090000Y-72700000D03*
X153430000Y-74200000D03*
X163070000Y-74330000D03*
X187840000Y-54360000D03*
X187880000Y-56640000D03*
X204470000Y-59400000D03*
X183134000Y-73406000D03*
X141100000Y-75070000D03*
X165990000Y-74470000D03*
X200330000Y-59470000D03*
X160100000Y-55560000D03*
X184890000Y-58110000D03*
X186350000Y-70140000D03*
X150300000Y-52830000D03*
X147280000Y-63050000D03*
X150290000Y-49530000D03*
X204160000Y-75250000D03*
X155780000Y-74180000D03*
X180840000Y-69130000D03*
X163670000Y-69080000D03*
X164980000Y-73510000D03*
X194650000Y-78010000D03*
X146920000Y-67800000D03*
X153730000Y-85870000D03*
X187780000Y-50190000D03*
X150300000Y-55660000D03*
X162470000Y-49150000D03*
X199630000Y-76850000D03*
X167560000Y-69350000D03*
X174850000Y-53210000D03*
X199640000Y-77990000D03*
X164980000Y-74460000D03*
X154610000Y-74180000D03*
X156200000Y-85830000D03*
X174850000Y-50960000D03*
X174830000Y-48890000D03*
X146920000Y-69820000D03*
X162520000Y-52790000D03*
X198640000Y-60720000D03*
X181050000Y-58140000D03*
X159240000Y-83130000D03*
X156359500Y-80330500D03*
X192790000Y-81850000D03*
X179750000Y-68880000D03*
X179750000Y-77320000D03*
X165153159Y-66816841D03*
X168640000Y-70910000D03*
X164833258Y-65653258D03*
X169180000Y-71550000D03*
X156040000Y-70950000D03*
X152110000Y-65870000D03*
X198600000Y-67480000D03*
X198600000Y-65500000D03*
X202510000Y-59430000D03*
D21*
X192080000Y-66810000D02*
X192080000Y-64270000D01*
X192080000Y-69350000D02*
X192080000Y-66810000D01*
X141080000Y-66810000D02*
X143620000Y-64270000D01*
X143620000Y-64270000D02*
X188580000Y-64270000D01*
D22*
X157300000Y-80650000D02*
X157300000Y-82670000D01*
X157300000Y-82670000D02*
X157760000Y-83130000D01*
X156980500Y-80330500D02*
X157300000Y-80650000D01*
X157760000Y-83130000D02*
X159240000Y-83130000D01*
X156359500Y-80330500D02*
X156980500Y-80330500D01*
X180200000Y-79680000D02*
X179750000Y-79230000D01*
X192790000Y-80150000D02*
X192320000Y-79680000D01*
X192790000Y-81850000D02*
X192790000Y-80150000D01*
X179750000Y-79230000D02*
X179750000Y-77320000D01*
X192320000Y-79680000D02*
X180200000Y-79680000D01*
X179750000Y-68880000D02*
X179750000Y-77320000D01*
D21*
X195580000Y-64270000D02*
X195580000Y-66810000D01*
X195580000Y-66810000D02*
X195580000Y-69350000D01*
D23*
X168160000Y-68200000D02*
X165570000Y-68200000D01*
X168640000Y-68680000D02*
X168160000Y-68200000D01*
X165153159Y-67783159D02*
X165153159Y-66816841D01*
X165570000Y-68200000D02*
X165153159Y-67783159D01*
X168640000Y-70910000D02*
X168640000Y-68680000D01*
X168190000Y-72860000D02*
X164180000Y-72860000D01*
X163010000Y-71690000D02*
X163010000Y-67476516D01*
X169180000Y-71550000D02*
X169180000Y-71870000D01*
X164180000Y-72860000D02*
X163010000Y-71690000D01*
X169180000Y-71870000D02*
X168190000Y-72860000D01*
X163010000Y-67476516D02*
X164833258Y-65653258D01*
D22*
X152110000Y-67020000D02*
X156040000Y-70950000D01*
X152110000Y-65870000D02*
X152110000Y-67020000D01*
G04 #@! TA.AperFunction,Conductor*
G36*
X169028421Y-93010185D02*
G01*
X169074176Y-93062989D01*
X169084120Y-93132147D01*
X169055095Y-93195703D01*
X168996317Y-93233477D01*
X168973536Y-93237903D01*
X168958968Y-93239337D01*
X168765654Y-93297978D01*
X168587511Y-93393198D01*
X168587504Y-93393203D01*
X168431352Y-93521352D01*
X168303203Y-93677504D01*
X168303198Y-93677511D01*
X168207978Y-93855654D01*
X168149337Y-94048968D01*
X168129538Y-94250000D01*
X168149337Y-94451031D01*
X168207978Y-94644345D01*
X168303198Y-94822488D01*
X168303203Y-94822495D01*
X168431352Y-94978647D01*
X168449356Y-94993422D01*
X168587506Y-95106798D01*
X168587509Y-95106799D01*
X168587511Y-95106801D01*
X168765654Y-95202021D01*
X168765656Y-95202021D01*
X168765659Y-95202023D01*
X168958967Y-95260662D01*
X169160000Y-95280462D01*
X169361033Y-95260662D01*
X169554341Y-95202023D01*
X169732494Y-95106798D01*
X169888647Y-94978647D01*
X170016798Y-94822494D01*
X170112023Y-94644341D01*
X170170662Y-94451033D01*
X170190462Y-94250000D01*
X170170662Y-94048967D01*
X170112023Y-93855659D01*
X170112021Y-93855656D01*
X170112021Y-93855654D01*
X170016801Y-93677511D01*
X170016799Y-93677509D01*
X170016798Y-93677506D01*
X169940855Y-93584969D01*
X169888647Y-93521352D01*
X169732495Y-93393203D01*
X169732488Y-93393198D01*
X169554345Y-93297978D01*
X169361031Y-93239337D01*
X169346464Y-93237903D01*
X169281677Y-93211742D01*
X169241318Y-93154708D01*
X169238201Y-93084907D01*
X169273316Y-93024503D01*
X169335513Y-92992672D01*
X169358618Y-92990500D01*
X171501382Y-92990500D01*
X171568421Y-93010185D01*
X171614176Y-93062989D01*
X171624120Y-93132147D01*
X171595095Y-93195703D01*
X171536317Y-93233477D01*
X171513536Y-93237903D01*
X171498968Y-93239337D01*
X171305654Y-93297978D01*
X171127511Y-93393198D01*
X171127504Y-93393203D01*
X170971352Y-93521352D01*
X170843203Y-93677504D01*
X170843198Y-93677511D01*
X170747978Y-93855654D01*
X170689337Y-94048968D01*
X170669538Y-94250000D01*
X170689337Y-94451031D01*
X170747978Y-94644345D01*
X170843198Y-94822488D01*
X170843203Y-94822495D01*
X170971352Y-94978647D01*
X170989356Y-94993422D01*
X171127506Y-95106798D01*
X171127509Y-95106799D01*
X171127511Y-95106801D01*
X171305654Y-95202021D01*
X171305656Y-95202021D01*
X171305659Y-95202023D01*
X171498967Y-95260662D01*
X171700000Y-95280462D01*
X171901033Y-95260662D01*
X172094341Y-95202023D01*
X172272494Y-95106798D01*
X172428647Y-94978647D01*
X172556798Y-94822494D01*
X172652023Y-94644341D01*
X172696896Y-94496411D01*
X172735192Y-94437975D01*
X172799005Y-94409519D01*
X172868072Y-94420079D01*
X172920465Y-94466303D01*
X172935331Y-94500316D01*
X172990148Y-94704900D01*
X172990152Y-94704909D01*
X173088133Y-94915030D01*
X173143023Y-94993422D01*
X173716212Y-94420233D01*
X173727482Y-94462292D01*
X173799890Y-94587708D01*
X173902292Y-94690110D01*
X174027708Y-94762518D01*
X174069765Y-94773787D01*
X173496576Y-95346975D01*
X173574969Y-95401867D01*
X173785090Y-95499847D01*
X173785099Y-95499851D01*
X174009031Y-95559852D01*
X174009041Y-95559854D01*
X174239999Y-95580061D01*
X174240001Y-95580061D01*
X174470958Y-95559854D01*
X174470968Y-95559852D01*
X174694900Y-95499851D01*
X174694909Y-95499847D01*
X174905030Y-95401867D01*
X174905034Y-95401865D01*
X174983422Y-95346976D01*
X174983422Y-95346975D01*
X174410235Y-94773787D01*
X174452292Y-94762518D01*
X174577708Y-94690110D01*
X174680110Y-94587708D01*
X174752518Y-94462292D01*
X174763787Y-94420234D01*
X175336975Y-94993422D01*
X175336976Y-94993422D01*
X175391865Y-94915034D01*
X175391867Y-94915030D01*
X175489847Y-94704909D01*
X175489851Y-94704900D01*
X175549852Y-94480968D01*
X175549854Y-94480958D01*
X175570061Y-94250000D01*
X175570061Y-94249999D01*
X175549854Y-94019041D01*
X175549852Y-94019031D01*
X175489851Y-93795099D01*
X175489847Y-93795090D01*
X175391867Y-93584971D01*
X175391866Y-93584969D01*
X175336975Y-93506577D01*
X175336975Y-93506576D01*
X174763787Y-94079764D01*
X174752518Y-94037708D01*
X174680110Y-93912292D01*
X174577708Y-93809890D01*
X174452292Y-93737482D01*
X174410234Y-93726212D01*
X174983422Y-93153023D01*
X174980998Y-93125307D01*
X174994765Y-93056807D01*
X175043380Y-93006624D01*
X175104526Y-92990500D01*
X205375500Y-92990500D01*
X205442539Y-93010185D01*
X205488294Y-93062989D01*
X205499500Y-93114500D01*
X205499500Y-104965500D01*
X205479815Y-105032539D01*
X205427011Y-105078294D01*
X205375500Y-105089500D01*
X137124500Y-105089500D01*
X137057461Y-105069815D01*
X137011706Y-105017011D01*
X137000500Y-104965500D01*
X137000500Y-99238711D01*
X139809500Y-99238711D01*
X139809500Y-99481288D01*
X139841161Y-99721785D01*
X139903947Y-99956104D01*
X139960432Y-100092470D01*
X139996776Y-100180212D01*
X140118064Y-100390289D01*
X140118066Y-100390292D01*
X140118067Y-100390293D01*
X140265733Y-100582736D01*
X140265739Y-100582743D01*
X140437256Y-100754260D01*
X140437262Y-100754265D01*
X140629711Y-100901936D01*
X140839788Y-101023224D01*
X141063900Y-101116054D01*
X141298211Y-101178838D01*
X141478586Y-101202584D01*
X141538711Y-101210500D01*
X141538712Y-101210500D01*
X141781289Y-101210500D01*
X141829388Y-101204167D01*
X142021789Y-101178838D01*
X142256100Y-101116054D01*
X142480212Y-101023224D01*
X142690289Y-100901936D01*
X142882738Y-100754265D01*
X143054265Y-100582738D01*
X143201936Y-100390289D01*
X143323224Y-100180212D01*
X143335346Y-100150947D01*
X169460200Y-100150947D01*
X169460200Y-101689052D01*
X169471831Y-101747529D01*
X169471832Y-101747530D01*
X169516147Y-101813852D01*
X169582469Y-101858167D01*
X169582470Y-101858168D01*
X169640947Y-101869799D01*
X169640950Y-101869800D01*
X169640952Y-101869800D01*
X171179050Y-101869800D01*
X171179051Y-101869799D01*
X171193868Y-101866852D01*
X171237529Y-101858168D01*
X171237529Y-101858167D01*
X171237531Y-101858167D01*
X171303852Y-101813852D01*
X171348167Y-101747531D01*
X171348167Y-101747529D01*
X171348168Y-101747529D01*
X171359799Y-101689052D01*
X171359800Y-101689050D01*
X171359800Y-100919998D01*
X171695928Y-100919998D01*
X171695928Y-100920001D01*
X171714979Y-101137761D01*
X171714981Y-101137771D01*
X171771555Y-101348910D01*
X171771559Y-101348919D01*
X171863941Y-101547034D01*
X171863942Y-101547036D01*
X171907377Y-101609067D01*
X171907378Y-101609068D01*
X172470874Y-101045571D01*
X172488454Y-101111179D01*
X172553661Y-101224121D01*
X172645879Y-101316339D01*
X172758821Y-101381546D01*
X172824427Y-101399125D01*
X172260930Y-101962621D01*
X172322964Y-102006057D01*
X172521080Y-102098440D01*
X172521089Y-102098444D01*
X172732228Y-102155018D01*
X172732238Y-102155020D01*
X172949998Y-102174072D01*
X172950002Y-102174072D01*
X173167761Y-102155020D01*
X173167771Y-102155018D01*
X173378910Y-102098444D01*
X173378919Y-102098440D01*
X173577035Y-102006058D01*
X173577039Y-102006056D01*
X173639068Y-101962622D01*
X173639068Y-101962621D01*
X173075572Y-101399125D01*
X173141179Y-101381546D01*
X173254121Y-101316339D01*
X173346339Y-101224121D01*
X173411546Y-101111179D01*
X173429125Y-101045572D01*
X173992621Y-101609068D01*
X173992622Y-101609068D01*
X174036056Y-101547039D01*
X174036058Y-101547035D01*
X174128440Y-101348919D01*
X174128444Y-101348910D01*
X174185018Y-101137771D01*
X174185020Y-101137761D01*
X174204072Y-100920001D01*
X174204072Y-100919998D01*
X174185020Y-100702238D01*
X174185018Y-100702228D01*
X174128444Y-100491089D01*
X174128440Y-100491080D01*
X174036057Y-100292964D01*
X173992621Y-100230930D01*
X173429124Y-100794426D01*
X173411546Y-100728821D01*
X173346339Y-100615879D01*
X173254121Y-100523661D01*
X173141179Y-100458454D01*
X173075572Y-100440874D01*
X173639068Y-99877378D01*
X173639067Y-99877377D01*
X173577036Y-99833942D01*
X173577034Y-99833941D01*
X173378919Y-99741559D01*
X173378910Y-99741555D01*
X173167771Y-99684981D01*
X173167761Y-99684979D01*
X172950002Y-99665928D01*
X172949998Y-99665928D01*
X172732238Y-99684979D01*
X172732228Y-99684981D01*
X172521089Y-99741555D01*
X172521080Y-99741559D01*
X172322960Y-99833944D01*
X172260931Y-99877376D01*
X172260930Y-99877377D01*
X172824428Y-100440874D01*
X172758821Y-100458454D01*
X172645879Y-100523661D01*
X172553661Y-100615879D01*
X172488454Y-100728821D01*
X172470874Y-100794427D01*
X171907377Y-100230930D01*
X171907376Y-100230931D01*
X171863944Y-100292960D01*
X171771559Y-100491080D01*
X171771555Y-100491089D01*
X171714981Y-100702228D01*
X171714979Y-100702238D01*
X171695928Y-100919998D01*
X171359800Y-100919998D01*
X171359800Y-100150949D01*
X171359799Y-100150947D01*
X171348168Y-100092470D01*
X171348167Y-100092469D01*
X171303852Y-100026147D01*
X171237530Y-99981832D01*
X171237529Y-99981831D01*
X171179052Y-99970200D01*
X171179048Y-99970200D01*
X169640952Y-99970200D01*
X169640947Y-99970200D01*
X169582470Y-99981831D01*
X169582469Y-99981832D01*
X169516147Y-100026147D01*
X169471832Y-100092469D01*
X169471831Y-100092470D01*
X169460200Y-100150947D01*
X143335346Y-100150947D01*
X143416054Y-99956100D01*
X143478838Y-99721789D01*
X143510500Y-99481288D01*
X143510500Y-99238712D01*
X143478838Y-98998211D01*
X143416054Y-98763900D01*
X143408321Y-98745232D01*
X143323226Y-98539794D01*
X143323224Y-98539788D01*
X143230970Y-98380000D01*
X170725604Y-98380000D01*
X170743941Y-98566190D01*
X170798255Y-98745237D01*
X170886444Y-98910228D01*
X170886450Y-98910235D01*
X171005139Y-99054860D01*
X171149764Y-99173549D01*
X171149771Y-99173555D01*
X171314762Y-99261744D01*
X171314768Y-99261747D01*
X171493807Y-99316058D01*
X171680000Y-99334396D01*
X171866193Y-99316058D01*
X172045232Y-99261747D01*
X172088328Y-99238711D01*
X200109500Y-99238711D01*
X200109500Y-99481288D01*
X200141161Y-99721785D01*
X200203947Y-99956104D01*
X200260432Y-100092470D01*
X200296776Y-100180212D01*
X200418064Y-100390289D01*
X200418066Y-100390292D01*
X200418067Y-100390293D01*
X200565733Y-100582736D01*
X200565739Y-100582743D01*
X200737256Y-100754260D01*
X200737262Y-100754265D01*
X200929711Y-100901936D01*
X201139788Y-101023224D01*
X201363900Y-101116054D01*
X201598211Y-101178838D01*
X201778586Y-101202584D01*
X201838711Y-101210500D01*
X201838712Y-101210500D01*
X202081289Y-101210500D01*
X202129388Y-101204167D01*
X202321789Y-101178838D01*
X202556100Y-101116054D01*
X202780212Y-101023224D01*
X202990289Y-100901936D01*
X203182738Y-100754265D01*
X203354265Y-100582738D01*
X203501936Y-100390289D01*
X203623224Y-100180212D01*
X203716054Y-99956100D01*
X203778838Y-99721789D01*
X203810500Y-99481288D01*
X203810500Y-99238712D01*
X203778838Y-98998211D01*
X203716054Y-98763900D01*
X203708321Y-98745232D01*
X203623226Y-98539794D01*
X203623224Y-98539788D01*
X203501936Y-98329711D01*
X203397655Y-98193809D01*
X203354266Y-98137263D01*
X203354260Y-98137256D01*
X203182743Y-97965739D01*
X203182736Y-97965733D01*
X202990293Y-97818067D01*
X202990292Y-97818066D01*
X202990289Y-97818064D01*
X202780212Y-97696776D01*
X202780205Y-97696773D01*
X202556104Y-97603947D01*
X202321785Y-97541161D01*
X202081289Y-97509500D01*
X202081288Y-97509500D01*
X201838712Y-97509500D01*
X201838711Y-97509500D01*
X201598214Y-97541161D01*
X201363895Y-97603947D01*
X201139794Y-97696773D01*
X201139785Y-97696777D01*
X200929706Y-97818067D01*
X200737263Y-97965733D01*
X200737256Y-97965739D01*
X200565739Y-98137256D01*
X200565733Y-98137263D01*
X200418067Y-98329706D01*
X200296777Y-98539785D01*
X200296773Y-98539794D01*
X200203947Y-98763895D01*
X200141161Y-98998214D01*
X200109500Y-99238711D01*
X172088328Y-99238711D01*
X172093456Y-99235970D01*
X172210228Y-99173555D01*
X172210230Y-99173552D01*
X172210234Y-99173551D01*
X172354860Y-99054860D01*
X172473551Y-98910234D01*
X172473552Y-98910230D01*
X172473555Y-98910228D01*
X172535970Y-98793456D01*
X172561747Y-98745232D01*
X172616058Y-98566193D01*
X172634396Y-98380000D01*
X172616058Y-98193807D01*
X172561747Y-98014768D01*
X172561744Y-98014762D01*
X172473555Y-97849771D01*
X172473549Y-97849764D01*
X172354860Y-97705139D01*
X172210235Y-97586450D01*
X172210228Y-97586444D01*
X172045237Y-97498255D01*
X172045234Y-97498254D01*
X172045232Y-97498253D01*
X171866193Y-97443942D01*
X171866190Y-97443941D01*
X171680000Y-97425604D01*
X171493809Y-97443941D01*
X171370959Y-97481207D01*
X171314768Y-97498253D01*
X171314767Y-97498253D01*
X171314762Y-97498255D01*
X171149771Y-97586444D01*
X171149764Y-97586450D01*
X171005139Y-97705139D01*
X170886450Y-97849764D01*
X170886444Y-97849771D01*
X170798255Y-98014762D01*
X170743941Y-98193809D01*
X170725604Y-98380000D01*
X143230970Y-98380000D01*
X143201936Y-98329711D01*
X143097655Y-98193809D01*
X143054266Y-98137263D01*
X143054260Y-98137256D01*
X142882743Y-97965739D01*
X142882736Y-97965733D01*
X142690293Y-97818067D01*
X142690292Y-97818066D01*
X142690289Y-97818064D01*
X142480212Y-97696776D01*
X142480205Y-97696773D01*
X142256104Y-97603947D01*
X142021785Y-97541161D01*
X141781289Y-97509500D01*
X141781288Y-97509500D01*
X141538712Y-97509500D01*
X141538711Y-97509500D01*
X141298214Y-97541161D01*
X141063895Y-97603947D01*
X140839794Y-97696773D01*
X140839785Y-97696777D01*
X140629706Y-97818067D01*
X140437263Y-97965733D01*
X140437256Y-97965739D01*
X140265739Y-98137256D01*
X140265733Y-98137263D01*
X140118067Y-98329706D01*
X139996777Y-98539785D01*
X139996773Y-98539794D01*
X139903947Y-98763895D01*
X139841161Y-98998214D01*
X139809500Y-99238711D01*
X137000500Y-99238711D01*
X137000500Y-93114500D01*
X137020185Y-93047461D01*
X137072989Y-93001706D01*
X137124500Y-92990500D01*
X168961382Y-92990500D01*
X169028421Y-93010185D01*
G37*
G04 #@! TD.AperFunction*
G04 #@! TA.AperFunction,Conductor*
G36*
X173442513Y-93010185D02*
G01*
X173488268Y-93062989D01*
X173499002Y-93125308D01*
X173496577Y-93153023D01*
X174069766Y-93726212D01*
X174027708Y-93737482D01*
X173902292Y-93809890D01*
X173799890Y-93912292D01*
X173727482Y-94037708D01*
X173716212Y-94079766D01*
X173143022Y-93506576D01*
X173088134Y-93584967D01*
X172990152Y-93795090D01*
X172990148Y-93795099D01*
X172935331Y-93999683D01*
X172898966Y-94059344D01*
X172836119Y-94089873D01*
X172766744Y-94081578D01*
X172712866Y-94037093D01*
X172696896Y-94003588D01*
X172652023Y-93855659D01*
X172652021Y-93855656D01*
X172652021Y-93855654D01*
X172556801Y-93677511D01*
X172556799Y-93677509D01*
X172556798Y-93677506D01*
X172480855Y-93584969D01*
X172428647Y-93521352D01*
X172272495Y-93393203D01*
X172272488Y-93393198D01*
X172094345Y-93297978D01*
X171901031Y-93239337D01*
X171886464Y-93237903D01*
X171821677Y-93211742D01*
X171781318Y-93154708D01*
X171778201Y-93084907D01*
X171813316Y-93024503D01*
X171875513Y-92992672D01*
X171898618Y-92990500D01*
X173375474Y-92990500D01*
X173442513Y-93010185D01*
G37*
G04 #@! TD.AperFunction*
G04 #@! TA.AperFunction,Conductor*
G36*
X164724286Y-66291976D02*
G01*
X164780219Y-66333848D01*
X164804636Y-66399312D01*
X164789784Y-66467585D01*
X164774666Y-66489360D01*
X164727782Y-66543468D01*
X164727781Y-66543469D01*
X164667993Y-66674384D01*
X164647512Y-66816841D01*
X164667993Y-66959297D01*
X164727781Y-67090212D01*
X164727782Y-67090214D01*
X164820772Y-67197532D01*
X164849797Y-67261086D01*
X164851059Y-67278733D01*
X164851059Y-67822934D01*
X164871644Y-67899764D01*
X164911420Y-67968655D01*
X165384503Y-68441738D01*
X165384505Y-68441739D01*
X165384506Y-68441740D01*
X165388942Y-68444301D01*
X165453394Y-68481514D01*
X165530224Y-68502099D01*
X165530228Y-68502100D01*
X165609772Y-68502100D01*
X167983504Y-68502100D01*
X168050543Y-68521785D01*
X168071185Y-68538419D01*
X168301581Y-68768815D01*
X168335066Y-68830138D01*
X168337900Y-68856496D01*
X168337900Y-70448107D01*
X168318215Y-70515146D01*
X168307613Y-70529309D01*
X168214625Y-70636622D01*
X168214622Y-70636628D01*
X168154834Y-70767543D01*
X168134353Y-70910000D01*
X168154834Y-71052456D01*
X168207537Y-71167857D01*
X168214623Y-71183373D01*
X168308872Y-71292143D01*
X168429947Y-71369953D01*
X168429950Y-71369954D01*
X168429949Y-71369954D01*
X168568037Y-71410500D01*
X168569108Y-71410654D01*
X168570092Y-71411103D01*
X168576548Y-71412999D01*
X168576275Y-71413926D01*
X168632664Y-71439676D01*
X168670441Y-71498453D01*
X168673496Y-71541131D01*
X168674353Y-71541131D01*
X168674353Y-71549999D01*
X168694834Y-71692456D01*
X168732893Y-71775791D01*
X168742837Y-71844949D01*
X168713812Y-71908505D01*
X168707780Y-71914984D01*
X168101185Y-72521581D01*
X168039862Y-72555066D01*
X168013504Y-72557900D01*
X164356496Y-72557900D01*
X164289457Y-72538215D01*
X164268815Y-72521581D01*
X163348419Y-71601185D01*
X163314934Y-71539862D01*
X163312100Y-71513504D01*
X163312100Y-67653011D01*
X163331785Y-67585972D01*
X163348414Y-67565335D01*
X164593273Y-66320475D01*
X164654594Y-66286992D01*
X164724286Y-66291976D01*
G37*
G04 #@! TD.AperFunction*
G04 #@! TA.AperFunction,Conductor*
G36*
X152427370Y-48020185D02*
G01*
X152473125Y-48072989D01*
X152483069Y-48142147D01*
X152454044Y-48205703D01*
X152450352Y-48209778D01*
X152445166Y-48215252D01*
X152437620Y-48223660D01*
X152420615Y-48243664D01*
X152413550Y-48252442D01*
X152397574Y-48273410D01*
X152387403Y-48287997D01*
X152359420Y-48331969D01*
X152353728Y-48341453D01*
X152340750Y-48364414D01*
X152332646Y-48380285D01*
X152321631Y-48404317D01*
X152318691Y-48411037D01*
X152308700Y-48435017D01*
X152305898Y-48442102D01*
X152296905Y-48466080D01*
X152296896Y-48466107D01*
X152290745Y-48485252D01*
X152290740Y-48485269D01*
X152283736Y-48511280D01*
X152282302Y-48516911D01*
X152276317Y-48541850D01*
X152274289Y-48551241D01*
X152269288Y-48577248D01*
X152266887Y-48592873D01*
X152263883Y-48618907D01*
X152263123Y-48626818D01*
X152261120Y-48652849D01*
X152260653Y-48660956D01*
X152259656Y-48686884D01*
X152259500Y-48695003D01*
X152259500Y-49594996D01*
X152259656Y-49603115D01*
X152260653Y-49629043D01*
X152261120Y-49637150D01*
X152263123Y-49663181D01*
X152263883Y-49671092D01*
X152266887Y-49697126D01*
X152269288Y-49712751D01*
X152274289Y-49738758D01*
X152276317Y-49748149D01*
X152282302Y-49773088D01*
X152283736Y-49778719D01*
X152290740Y-49804730D01*
X152290745Y-49804747D01*
X152296896Y-49823892D01*
X152296905Y-49823919D01*
X152304099Y-49843101D01*
X152305903Y-49847911D01*
X152308692Y-49854962D01*
X152308700Y-49854982D01*
X152318691Y-49878962D01*
X152321631Y-49885682D01*
X152332646Y-49909714D01*
X152340750Y-49925585D01*
X152353728Y-49948546D01*
X152353743Y-49948572D01*
X152353747Y-49948578D01*
X152359409Y-49958012D01*
X152387409Y-50002012D01*
X152397562Y-50016572D01*
X152397574Y-50016589D01*
X152413550Y-50037557D01*
X152420615Y-50046335D01*
X152437620Y-50066339D01*
X152445184Y-50074768D01*
X152463187Y-50093771D01*
X152471228Y-50101812D01*
X152490231Y-50119815D01*
X152498473Y-50127212D01*
X152498670Y-50127388D01*
X152504911Y-50132693D01*
X152518664Y-50144384D01*
X152527442Y-50151449D01*
X152548410Y-50167425D01*
X152548421Y-50167432D01*
X152548428Y-50167438D01*
X152562988Y-50177591D01*
X152606988Y-50205591D01*
X152616422Y-50211253D01*
X152616439Y-50211262D01*
X152616453Y-50211271D01*
X152639414Y-50224249D01*
X152639422Y-50224253D01*
X152655294Y-50232358D01*
X152679294Y-50243358D01*
X152679317Y-50243368D01*
X152686037Y-50246308D01*
X152701024Y-50252552D01*
X152710038Y-50256308D01*
X152717089Y-50259097D01*
X152733886Y-50265396D01*
X152741080Y-50268094D01*
X152741107Y-50268103D01*
X152749312Y-50270739D01*
X152760276Y-50274262D01*
X152786276Y-50281262D01*
X152791875Y-50282688D01*
X152791886Y-50282690D01*
X152791911Y-50282697D01*
X152816850Y-50288682D01*
X152816875Y-50288688D01*
X152826248Y-50290712D01*
X152852248Y-50295712D01*
X152867872Y-50298113D01*
X152893872Y-50301113D01*
X152901855Y-50301880D01*
X152927855Y-50303880D01*
X152935910Y-50304344D01*
X152935943Y-50304345D01*
X152935956Y-50304346D01*
X152961884Y-50305343D01*
X152961910Y-50305344D01*
X152970000Y-50305500D01*
X152970003Y-50305500D01*
X154270003Y-50305500D01*
X154290074Y-50303238D01*
X154316841Y-50300222D01*
X154401245Y-50259576D01*
X154459654Y-50186333D01*
X154480500Y-50095000D01*
X154480500Y-48195000D01*
X154476851Y-48162612D01*
X154474121Y-48138384D01*
X154486175Y-48069562D01*
X154533524Y-48018183D01*
X154597341Y-48000500D01*
X158548402Y-48000500D01*
X158615441Y-48020185D01*
X158661196Y-48072989D01*
X158671140Y-48142147D01*
X158669293Y-48152093D01*
X158659500Y-48194996D01*
X158659500Y-50095002D01*
X158664777Y-50141837D01*
X158664779Y-50141843D01*
X158705423Y-50226244D01*
X158705424Y-50226245D01*
X158776201Y-50282688D01*
X158778667Y-50284654D01*
X158870000Y-50305500D01*
X158870002Y-50305500D01*
X160169997Y-50305500D01*
X160170000Y-50305500D01*
X160178090Y-50305344D01*
X160182436Y-50305176D01*
X160204043Y-50304346D01*
X160204053Y-50304345D01*
X160204090Y-50304344D01*
X160212145Y-50303880D01*
X160238145Y-50301880D01*
X160246128Y-50301113D01*
X160272128Y-50298113D01*
X160287752Y-50295712D01*
X160313752Y-50290712D01*
X160323125Y-50288688D01*
X160339946Y-50284651D01*
X160348088Y-50282697D01*
X160348096Y-50282694D01*
X160348125Y-50282688D01*
X160353724Y-50281262D01*
X160379724Y-50274262D01*
X160398911Y-50268097D01*
X160422911Y-50259097D01*
X160429962Y-50256308D01*
X160453962Y-50246308D01*
X160460706Y-50243358D01*
X160484706Y-50232358D01*
X160500578Y-50224253D01*
X160523578Y-50211253D01*
X160533012Y-50205591D01*
X160577012Y-50177591D01*
X160591572Y-50167438D01*
X160612572Y-50151438D01*
X160621330Y-50144388D01*
X160641330Y-50127388D01*
X160649770Y-50119813D01*
X160668770Y-50101813D01*
X160676813Y-50093770D01*
X160694813Y-50074770D01*
X160702388Y-50066330D01*
X160719388Y-50046330D01*
X160726438Y-50037572D01*
X160742438Y-50016572D01*
X160752591Y-50002012D01*
X160780591Y-49958012D01*
X160786253Y-49948578D01*
X160799253Y-49925578D01*
X160807358Y-49909706D01*
X160818358Y-49885706D01*
X160821308Y-49878962D01*
X160831308Y-49854962D01*
X160834097Y-49847911D01*
X160843097Y-49823911D01*
X160849262Y-49804724D01*
X160856262Y-49778724D01*
X160857688Y-49773125D01*
X160863688Y-49748125D01*
X160865712Y-49738752D01*
X160870712Y-49712752D01*
X160873113Y-49697128D01*
X160876113Y-49671128D01*
X160876880Y-49663145D01*
X160878880Y-49637145D01*
X160879344Y-49629090D01*
X160880344Y-49603090D01*
X160880500Y-49595000D01*
X160880500Y-48695000D01*
X160880344Y-48686910D01*
X160879344Y-48660910D01*
X160878880Y-48652855D01*
X160876880Y-48626855D01*
X160876113Y-48618872D01*
X160873113Y-48592872D01*
X160870712Y-48577248D01*
X160865712Y-48551248D01*
X160863688Y-48541875D01*
X160857688Y-48516875D01*
X160856262Y-48511276D01*
X160849262Y-48485276D01*
X160843097Y-48466089D01*
X160834097Y-48442089D01*
X160831308Y-48435038D01*
X160821308Y-48411038D01*
X160818358Y-48404294D01*
X160807358Y-48380294D01*
X160799253Y-48364422D01*
X160799249Y-48364414D01*
X160786271Y-48341453D01*
X160786262Y-48341439D01*
X160786253Y-48341422D01*
X160780591Y-48331988D01*
X160752591Y-48287988D01*
X160742438Y-48273428D01*
X160742432Y-48273421D01*
X160742425Y-48273410D01*
X160726449Y-48252442D01*
X160719384Y-48243664D01*
X160702379Y-48223660D01*
X160694833Y-48215252D01*
X160694828Y-48215246D01*
X160694813Y-48215230D01*
X160689648Y-48209778D01*
X160657834Y-48147571D01*
X160664702Y-48078040D01*
X160708071Y-48023259D01*
X160774171Y-48000622D01*
X160779669Y-48000500D01*
X205375500Y-48000500D01*
X205442539Y-48020185D01*
X205488294Y-48072989D01*
X205499500Y-48124500D01*
X205499500Y-91285500D01*
X205479815Y-91352539D01*
X205427011Y-91398294D01*
X205375500Y-91409500D01*
X137124500Y-91409500D01*
X137057461Y-91389815D01*
X137011706Y-91337011D01*
X137000500Y-91285500D01*
X137000500Y-87968711D01*
X139809500Y-87968711D01*
X139809500Y-88211288D01*
X139841161Y-88451785D01*
X139903947Y-88686104D01*
X139976062Y-88860205D01*
X139996776Y-88910212D01*
X140118064Y-89120289D01*
X140118066Y-89120292D01*
X140118067Y-89120293D01*
X140265733Y-89312736D01*
X140265739Y-89312743D01*
X140437256Y-89484260D01*
X140437262Y-89484265D01*
X140629711Y-89631936D01*
X140839788Y-89753224D01*
X141063900Y-89846054D01*
X141298211Y-89908838D01*
X141478586Y-89932584D01*
X141538711Y-89940500D01*
X141538712Y-89940500D01*
X141781289Y-89940500D01*
X141829388Y-89934167D01*
X142021789Y-89908838D01*
X142256100Y-89846054D01*
X142480212Y-89753224D01*
X142690289Y-89631936D01*
X142882738Y-89484265D01*
X143054265Y-89312738D01*
X143201936Y-89120289D01*
X143323224Y-88910212D01*
X143416054Y-88686100D01*
X143478838Y-88451789D01*
X143510500Y-88211288D01*
X143510500Y-87968712D01*
X143503917Y-87918712D01*
X143503917Y-87918711D01*
X200109500Y-87918711D01*
X200109500Y-88161288D01*
X200141161Y-88401785D01*
X200203947Y-88636104D01*
X200224658Y-88686104D01*
X200296776Y-88860212D01*
X200418064Y-89070289D01*
X200418066Y-89070292D01*
X200418067Y-89070293D01*
X200565733Y-89262736D01*
X200565739Y-89262743D01*
X200737256Y-89434260D01*
X200737262Y-89434265D01*
X200929711Y-89581936D01*
X201139788Y-89703224D01*
X201363900Y-89796054D01*
X201598211Y-89858838D01*
X201778586Y-89882584D01*
X201838711Y-89890500D01*
X201838712Y-89890500D01*
X202081289Y-89890500D01*
X202129388Y-89884167D01*
X202321789Y-89858838D01*
X202556100Y-89796054D01*
X202780212Y-89703224D01*
X202990289Y-89581936D01*
X203182738Y-89434265D01*
X203354265Y-89262738D01*
X203501936Y-89070289D01*
X203623224Y-88860212D01*
X203716054Y-88636100D01*
X203778838Y-88401789D01*
X203810500Y-88161288D01*
X203810500Y-87918712D01*
X203778838Y-87678211D01*
X203716054Y-87443900D01*
X203623224Y-87219788D01*
X203501936Y-87009711D01*
X203354265Y-86817262D01*
X203354260Y-86817256D01*
X203182743Y-86645739D01*
X203182736Y-86645733D01*
X202990293Y-86498067D01*
X202990292Y-86498066D01*
X202990289Y-86498064D01*
X202780212Y-86376776D01*
X202780205Y-86376773D01*
X202556104Y-86283947D01*
X202321785Y-86221161D01*
X202081289Y-86189500D01*
X202081288Y-86189500D01*
X201838712Y-86189500D01*
X201838711Y-86189500D01*
X201598214Y-86221161D01*
X201363895Y-86283947D01*
X201139794Y-86376773D01*
X201139785Y-86376777D01*
X200929706Y-86498067D01*
X200737263Y-86645733D01*
X200737256Y-86645739D01*
X200565739Y-86817256D01*
X200565733Y-86817263D01*
X200418067Y-87009706D01*
X200296777Y-87219785D01*
X200296773Y-87219794D01*
X200203947Y-87443895D01*
X200141161Y-87678214D01*
X200109500Y-87918711D01*
X143503917Y-87918711D01*
X143478838Y-87728214D01*
X143478838Y-87728211D01*
X143416054Y-87493900D01*
X143323224Y-87269788D01*
X143201936Y-87059711D01*
X143054265Y-86867262D01*
X143054260Y-86867256D01*
X142882743Y-86695739D01*
X142882736Y-86695733D01*
X142690293Y-86548067D01*
X142690292Y-86548066D01*
X142690289Y-86548064D01*
X142480212Y-86426776D01*
X142480205Y-86426773D01*
X142256104Y-86333947D01*
X142021785Y-86271161D01*
X141781289Y-86239500D01*
X141781288Y-86239500D01*
X141538712Y-86239500D01*
X141538711Y-86239500D01*
X141298214Y-86271161D01*
X141063895Y-86333947D01*
X140839794Y-86426773D01*
X140839785Y-86426777D01*
X140629706Y-86548067D01*
X140437263Y-86695733D01*
X140437256Y-86695739D01*
X140265739Y-86867256D01*
X140265733Y-86867263D01*
X140118067Y-87059706D01*
X139996777Y-87269785D01*
X139996773Y-87269794D01*
X139903947Y-87493895D01*
X139841161Y-87728214D01*
X139809500Y-87968711D01*
X137000500Y-87968711D01*
X137000500Y-80330500D01*
X155853853Y-80330500D01*
X155874334Y-80472956D01*
X155934122Y-80603871D01*
X155934123Y-80603873D01*
X156028372Y-80712643D01*
X156149447Y-80790453D01*
X156149450Y-80790454D01*
X156149449Y-80790454D01*
X156287536Y-80830999D01*
X156287538Y-80831000D01*
X156287539Y-80831000D01*
X156431462Y-80831000D01*
X156431462Y-80830999D01*
X156569550Y-80790454D01*
X156569551Y-80790454D01*
X156592604Y-80775639D01*
X156646215Y-80741184D01*
X156713255Y-80721500D01*
X156767180Y-80721500D01*
X156834219Y-80741185D01*
X156854861Y-80757819D01*
X156872681Y-80775639D01*
X156906166Y-80836962D01*
X156909000Y-80863320D01*
X156909000Y-82618524D01*
X156909000Y-82721476D01*
X156935646Y-82820921D01*
X156987122Y-82910080D01*
X157519920Y-83442878D01*
X157609079Y-83494354D01*
X157708524Y-83521000D01*
X158886245Y-83521000D01*
X158953284Y-83540685D01*
X158990746Y-83564760D01*
X159029948Y-83589954D01*
X159168036Y-83630499D01*
X159168038Y-83630500D01*
X159168039Y-83630500D01*
X159311962Y-83630500D01*
X159311962Y-83630499D01*
X159450053Y-83589953D01*
X159571128Y-83512143D01*
X159665377Y-83403373D01*
X159725165Y-83272457D01*
X159745647Y-83130000D01*
X159725165Y-82987543D01*
X159665377Y-82856627D01*
X159571128Y-82747857D01*
X159450053Y-82670047D01*
X159450051Y-82670046D01*
X159450049Y-82670045D01*
X159450050Y-82670045D01*
X159311963Y-82629500D01*
X159311961Y-82629500D01*
X159168039Y-82629500D01*
X159168036Y-82629500D01*
X159029949Y-82670045D01*
X159029948Y-82670045D01*
X158979167Y-82702681D01*
X158953284Y-82719315D01*
X158886245Y-82739000D01*
X157973320Y-82739000D01*
X157906281Y-82719315D01*
X157885639Y-82702681D01*
X157727319Y-82544361D01*
X157693834Y-82483038D01*
X157691000Y-82456680D01*
X157691000Y-80598527D01*
X157691000Y-80598524D01*
X157683047Y-80568842D01*
X157664354Y-80499079D01*
X157612878Y-80409920D01*
X157220580Y-80017622D01*
X157131421Y-79966146D01*
X157031976Y-79939500D01*
X157031975Y-79939500D01*
X156713255Y-79939500D01*
X156646216Y-79919815D01*
X156621427Y-79903885D01*
X156569551Y-79870545D01*
X156431463Y-79830000D01*
X156431461Y-79830000D01*
X156287539Y-79830000D01*
X156287536Y-79830000D01*
X156149449Y-79870545D01*
X156028373Y-79948356D01*
X155934123Y-80057126D01*
X155934122Y-80057128D01*
X155874334Y-80188043D01*
X155853853Y-80330500D01*
X137000500Y-80330500D01*
X137000500Y-71809999D01*
X139973078Y-71809999D01*
X139973078Y-71810000D01*
X139991924Y-72013395D01*
X140047825Y-72209863D01*
X140047830Y-72209876D01*
X140104578Y-72323840D01*
X140138876Y-72392719D01*
X140261474Y-72555066D01*
X140261977Y-72555731D01*
X140261981Y-72555735D01*
X140412929Y-72693342D01*
X140412931Y-72693344D01*
X140586598Y-72800874D01*
X140586604Y-72800877D01*
X140626955Y-72816508D01*
X140777076Y-72874666D01*
X140977866Y-72912200D01*
X140977868Y-72912200D01*
X141182132Y-72912200D01*
X141182134Y-72912200D01*
X141382924Y-72874666D01*
X141573398Y-72800876D01*
X141747070Y-72693343D01*
X141898025Y-72555729D01*
X142021124Y-72392719D01*
X142112174Y-72209866D01*
X142168075Y-72013396D01*
X142186922Y-71810000D01*
X142186607Y-71806605D01*
X142168075Y-71606604D01*
X142156199Y-71564866D01*
X142112174Y-71410134D01*
X142112084Y-71409954D01*
X142045695Y-71276626D01*
X142021124Y-71227281D01*
X141898025Y-71064271D01*
X141898022Y-71064268D01*
X141898018Y-71064264D01*
X141747070Y-70926657D01*
X141747068Y-70926655D01*
X141573401Y-70819125D01*
X141573395Y-70819122D01*
X141400776Y-70752250D01*
X141382924Y-70745334D01*
X141182134Y-70707800D01*
X140977866Y-70707800D01*
X140777076Y-70745334D01*
X140777073Y-70745334D01*
X140777073Y-70745335D01*
X140586604Y-70819122D01*
X140586598Y-70819125D01*
X140412931Y-70926655D01*
X140412929Y-70926657D01*
X140261981Y-71064264D01*
X140261977Y-71064268D01*
X140138876Y-71227280D01*
X140047830Y-71410123D01*
X140047825Y-71410136D01*
X139991924Y-71606604D01*
X139973078Y-71809999D01*
X137000500Y-71809999D01*
X137000500Y-66809999D01*
X139973078Y-66809999D01*
X139973078Y-66810000D01*
X139991924Y-67013395D01*
X140047825Y-67209863D01*
X140047830Y-67209876D01*
X140133785Y-67382495D01*
X140138876Y-67392719D01*
X140249075Y-67538647D01*
X140261977Y-67555731D01*
X140261981Y-67555735D01*
X140412929Y-67693342D01*
X140412931Y-67693344D01*
X140586598Y-67800874D01*
X140586604Y-67800877D01*
X140626955Y-67816508D01*
X140777076Y-67874666D01*
X140977866Y-67912200D01*
X140977868Y-67912200D01*
X141182132Y-67912200D01*
X141182134Y-67912200D01*
X141382924Y-67874666D01*
X141573398Y-67800876D01*
X141747070Y-67693343D01*
X141898025Y-67555729D01*
X142021124Y-67392719D01*
X142112174Y-67209866D01*
X142168075Y-67013396D01*
X142186922Y-66810000D01*
X142168075Y-66606604D01*
X142134430Y-66488354D01*
X142135016Y-66418492D01*
X142166013Y-66366745D01*
X142662759Y-65870000D01*
X151604353Y-65870000D01*
X151624834Y-66012456D01*
X151648498Y-66064271D01*
X151684623Y-66143373D01*
X151688710Y-66148090D01*
X151717737Y-66211644D01*
X151719000Y-66229295D01*
X151719000Y-66968524D01*
X151719000Y-67071476D01*
X151745646Y-67170921D01*
X151797122Y-67260080D01*
X151797124Y-67260082D01*
X155513113Y-70976071D01*
X155546598Y-71037394D01*
X155548170Y-71046104D01*
X155549083Y-71052457D01*
X155554835Y-71092457D01*
X155614623Y-71223373D01*
X155708872Y-71332143D01*
X155829947Y-71409953D01*
X155829950Y-71409954D01*
X155829949Y-71409954D01*
X155968036Y-71450499D01*
X155968038Y-71450500D01*
X155968039Y-71450500D01*
X156111962Y-71450500D01*
X156111962Y-71450499D01*
X156239679Y-71412999D01*
X156250050Y-71409954D01*
X156250050Y-71409953D01*
X156250053Y-71409953D01*
X156371128Y-71332143D01*
X156465377Y-71223373D01*
X156525165Y-71092457D01*
X156545647Y-70950000D01*
X156525165Y-70807543D01*
X156465377Y-70676627D01*
X156371128Y-70567857D01*
X156250053Y-70490047D01*
X156250050Y-70490045D01*
X156114716Y-70450308D01*
X156061970Y-70419012D01*
X153079702Y-67436744D01*
X162707900Y-67436744D01*
X162707900Y-67436745D01*
X162707900Y-71729775D01*
X162728485Y-71806605D01*
X162768261Y-71875496D01*
X163994503Y-73101738D01*
X164063394Y-73141514D01*
X164140224Y-73162099D01*
X164140228Y-73162100D01*
X164140231Y-73162100D01*
X168229769Y-73162100D01*
X168229772Y-73162100D01*
X168252602Y-73155982D01*
X168306605Y-73141514D01*
X168306607Y-73141513D01*
X168375494Y-73101740D01*
X169421740Y-72055494D01*
X169442637Y-72019299D01*
X169457364Y-71993792D01*
X169465578Y-71979566D01*
X169468045Y-71980990D01*
X169503203Y-71937330D01*
X169506871Y-71934878D01*
X169511128Y-71932143D01*
X169605377Y-71823373D01*
X169665165Y-71692457D01*
X169685647Y-71550000D01*
X169665165Y-71407543D01*
X169605377Y-71276627D01*
X169511128Y-71167857D01*
X169390053Y-71090047D01*
X169390051Y-71090046D01*
X169390049Y-71090045D01*
X169390050Y-71090045D01*
X169251960Y-71049499D01*
X169250881Y-71049344D01*
X169249889Y-71048891D01*
X169243452Y-71047001D01*
X169243723Y-71046075D01*
X169187327Y-71020316D01*
X169149555Y-70961536D01*
X169146506Y-70918869D01*
X169145647Y-70918869D01*
X169145647Y-70910001D01*
X169125165Y-70767543D01*
X169083645Y-70676628D01*
X169065377Y-70636627D01*
X169065375Y-70636625D01*
X169065374Y-70636622D01*
X168972387Y-70529309D01*
X168943362Y-70465753D01*
X168942100Y-70448107D01*
X168942100Y-68880000D01*
X179244353Y-68880000D01*
X179264834Y-69022456D01*
X179300782Y-69101170D01*
X179324623Y-69153373D01*
X179328710Y-69158090D01*
X179357737Y-69221644D01*
X179359000Y-69239295D01*
X179359000Y-76960703D01*
X179339315Y-77027742D01*
X179328717Y-77041901D01*
X179324625Y-77046623D01*
X179324622Y-77046628D01*
X179264834Y-77177543D01*
X179244353Y-77320000D01*
X179264834Y-77462456D01*
X179304123Y-77548485D01*
X179324623Y-77593373D01*
X179328710Y-77598090D01*
X179357737Y-77661644D01*
X179359000Y-77679295D01*
X179359000Y-79178524D01*
X179359000Y-79281476D01*
X179385646Y-79380921D01*
X179437122Y-79470080D01*
X179959920Y-79992878D01*
X180049079Y-80044354D01*
X180148524Y-80071000D01*
X192106680Y-80071000D01*
X192173719Y-80090685D01*
X192194361Y-80107319D01*
X192362681Y-80275639D01*
X192396166Y-80336962D01*
X192399000Y-80363320D01*
X192399000Y-81490703D01*
X192379315Y-81557742D01*
X192368717Y-81571901D01*
X192364625Y-81576623D01*
X192364622Y-81576628D01*
X192304834Y-81707543D01*
X192284353Y-81850000D01*
X192304834Y-81992456D01*
X192364622Y-82123371D01*
X192364623Y-82123373D01*
X192458872Y-82232143D01*
X192579947Y-82309953D01*
X192579950Y-82309954D01*
X192579949Y-82309954D01*
X192718036Y-82350499D01*
X192718038Y-82350500D01*
X192718039Y-82350500D01*
X192861962Y-82350500D01*
X192861962Y-82350499D01*
X193000053Y-82309953D01*
X193121128Y-82232143D01*
X193215377Y-82123373D01*
X193275165Y-81992457D01*
X193295647Y-81850000D01*
X193275165Y-81707543D01*
X193215377Y-81576627D01*
X193215374Y-81576623D01*
X193211283Y-81571901D01*
X193182261Y-81508344D01*
X193181000Y-81490703D01*
X193181000Y-80098526D01*
X193181000Y-80098524D01*
X193154354Y-79999080D01*
X193102878Y-79909920D01*
X193030080Y-79837122D01*
X192560080Y-79367122D01*
X192470921Y-79315646D01*
X192371476Y-79289000D01*
X192371475Y-79289000D01*
X180413320Y-79289000D01*
X180346281Y-79269315D01*
X180325639Y-79252681D01*
X180177319Y-79104361D01*
X180143834Y-79043038D01*
X180141000Y-79016680D01*
X180141000Y-77679295D01*
X180160685Y-77612256D01*
X180171286Y-77598093D01*
X180175377Y-77593373D01*
X180235165Y-77462457D01*
X180255647Y-77320000D01*
X180235165Y-77177543D01*
X180175377Y-77046627D01*
X180175374Y-77046623D01*
X180171283Y-77041901D01*
X180142261Y-76978344D01*
X180141000Y-76960703D01*
X180141000Y-72508235D01*
X200844000Y-72508235D01*
X200844000Y-72696264D01*
X200880679Y-72880659D01*
X200880682Y-72880671D01*
X200952629Y-73054368D01*
X200952636Y-73054381D01*
X201057091Y-73210707D01*
X201057094Y-73210711D01*
X201190038Y-73343655D01*
X201190042Y-73343658D01*
X201346368Y-73448113D01*
X201346381Y-73448120D01*
X201520078Y-73520067D01*
X201520083Y-73520069D01*
X201704485Y-73556749D01*
X201704488Y-73556750D01*
X201704490Y-73556750D01*
X203400512Y-73556750D01*
X203400513Y-73556749D01*
X203584917Y-73520069D01*
X203758625Y-73448117D01*
X203914958Y-73343658D01*
X204047908Y-73210708D01*
X204152367Y-73054375D01*
X204224319Y-72880667D01*
X204261000Y-72696260D01*
X204261000Y-72508240D01*
X204261000Y-72508237D01*
X204260999Y-72508235D01*
X204224320Y-72323840D01*
X204224319Y-72323833D01*
X204177117Y-72209876D01*
X204152370Y-72150131D01*
X204152363Y-72150118D01*
X204047908Y-71993792D01*
X204047905Y-71993788D01*
X203914961Y-71860844D01*
X203914957Y-71860841D01*
X203758631Y-71756386D01*
X203758618Y-71756379D01*
X203584921Y-71684432D01*
X203584909Y-71684429D01*
X203400513Y-71647750D01*
X203400510Y-71647750D01*
X201704490Y-71647750D01*
X201704487Y-71647750D01*
X201520090Y-71684429D01*
X201520078Y-71684432D01*
X201346381Y-71756379D01*
X201346368Y-71756386D01*
X201190042Y-71860841D01*
X201190038Y-71860844D01*
X201057094Y-71993788D01*
X201057091Y-71993792D01*
X200952636Y-72150118D01*
X200952629Y-72150131D01*
X200880682Y-72323828D01*
X200880679Y-72323840D01*
X200844000Y-72508235D01*
X180141000Y-72508235D01*
X180141000Y-69349999D01*
X187249939Y-69349999D01*
X187249939Y-69350000D01*
X187270145Y-69580958D01*
X187270147Y-69580968D01*
X187330148Y-69804900D01*
X187330152Y-69804909D01*
X187428133Y-70015030D01*
X187483023Y-70093422D01*
X188056212Y-69520233D01*
X188067482Y-69562292D01*
X188139890Y-69687708D01*
X188242292Y-69790110D01*
X188367708Y-69862518D01*
X188409765Y-69873787D01*
X187836576Y-70446975D01*
X187914969Y-70501867D01*
X188125090Y-70599847D01*
X188125099Y-70599851D01*
X188349031Y-70659852D01*
X188349041Y-70659854D01*
X188579999Y-70680061D01*
X188580001Y-70680061D01*
X188810958Y-70659854D01*
X188810968Y-70659852D01*
X189034900Y-70599851D01*
X189034909Y-70599847D01*
X189245030Y-70501867D01*
X189245034Y-70501865D01*
X189323422Y-70446976D01*
X189323422Y-70446975D01*
X188750235Y-69873787D01*
X188792292Y-69862518D01*
X188917708Y-69790110D01*
X189020110Y-69687708D01*
X189092518Y-69562292D01*
X189103787Y-69520234D01*
X189676975Y-70093422D01*
X189676976Y-70093422D01*
X189731865Y-70015034D01*
X189731867Y-70015030D01*
X189829847Y-69804909D01*
X189829851Y-69804900D01*
X189889852Y-69580968D01*
X189889854Y-69580958D01*
X189910061Y-69350000D01*
X189910061Y-69349999D01*
X189889854Y-69119041D01*
X189889852Y-69119031D01*
X189829851Y-68895099D01*
X189829847Y-68895090D01*
X189731867Y-68684971D01*
X189731866Y-68684969D01*
X189676975Y-68606577D01*
X189676975Y-68606576D01*
X189103787Y-69179764D01*
X189092518Y-69137708D01*
X189020110Y-69012292D01*
X188917708Y-68909890D01*
X188792292Y-68837482D01*
X188750234Y-68826212D01*
X189323422Y-68253023D01*
X189245030Y-68198133D01*
X189034909Y-68100152D01*
X189034900Y-68100148D01*
X188830316Y-68045331D01*
X188770655Y-68008966D01*
X188740126Y-67946119D01*
X188748421Y-67876744D01*
X188792906Y-67822866D01*
X188826408Y-67806897D01*
X188974341Y-67762023D01*
X189009207Y-67743387D01*
X189152488Y-67666801D01*
X189152486Y-67666801D01*
X189152494Y-67666798D01*
X189308647Y-67538647D01*
X189436798Y-67382494D01*
X189528093Y-67211694D01*
X189532021Y-67204345D01*
X189532021Y-67204344D01*
X189532023Y-67204341D01*
X189590662Y-67011033D01*
X189610462Y-66810000D01*
X189590662Y-66608967D01*
X189532023Y-66415659D01*
X189532021Y-66415656D01*
X189532021Y-66415654D01*
X189436801Y-66237511D01*
X189436799Y-66237509D01*
X189436798Y-66237506D01*
X189368068Y-66153758D01*
X189308647Y-66081352D01*
X189152495Y-65953203D01*
X189152488Y-65953198D01*
X188974345Y-65857978D01*
X188781031Y-65799337D01*
X188580000Y-65779538D01*
X188378968Y-65799337D01*
X188185654Y-65857978D01*
X188007511Y-65953198D01*
X188007504Y-65953203D01*
X187851352Y-66081352D01*
X187723203Y-66237504D01*
X187723198Y-66237511D01*
X187627978Y-66415654D01*
X187569337Y-66608968D01*
X187549538Y-66810000D01*
X187569337Y-67011031D01*
X187627978Y-67204345D01*
X187723198Y-67382488D01*
X187723201Y-67382492D01*
X187723202Y-67382494D01*
X187742688Y-67406238D01*
X187851352Y-67538647D01*
X187934231Y-67606663D01*
X188007506Y-67666798D01*
X188007509Y-67666799D01*
X188007511Y-67666801D01*
X188185654Y-67762021D01*
X188185656Y-67762021D01*
X188185659Y-67762023D01*
X188333586Y-67806896D01*
X188392024Y-67845193D01*
X188420480Y-67909005D01*
X188409920Y-67978072D01*
X188363696Y-68030465D01*
X188329683Y-68045331D01*
X188125099Y-68100148D01*
X188125090Y-68100152D01*
X187914967Y-68198134D01*
X187836576Y-68253022D01*
X188409766Y-68826212D01*
X188367708Y-68837482D01*
X188242292Y-68909890D01*
X188139890Y-69012292D01*
X188067482Y-69137708D01*
X188056212Y-69179765D01*
X187483023Y-68606576D01*
X187483022Y-68606576D01*
X187428134Y-68684967D01*
X187330152Y-68895090D01*
X187330148Y-68895099D01*
X187270147Y-69119031D01*
X187270145Y-69119041D01*
X187249939Y-69349999D01*
X180141000Y-69349999D01*
X180141000Y-69239295D01*
X180160685Y-69172256D01*
X180171286Y-69158093D01*
X180175377Y-69153373D01*
X180235165Y-69022457D01*
X180255647Y-68880000D01*
X180235165Y-68737543D01*
X180175377Y-68606627D01*
X180081128Y-68497857D01*
X179960053Y-68420047D01*
X179960051Y-68420046D01*
X179960049Y-68420045D01*
X179960050Y-68420045D01*
X179821963Y-68379500D01*
X179821961Y-68379500D01*
X179678039Y-68379500D01*
X179678036Y-68379500D01*
X179539949Y-68420045D01*
X179418873Y-68497856D01*
X179418872Y-68497856D01*
X179418872Y-68497857D01*
X179406290Y-68512377D01*
X179324623Y-68606626D01*
X179324622Y-68606628D01*
X179264834Y-68737543D01*
X179244353Y-68880000D01*
X168942100Y-68880000D01*
X168942100Y-68640231D01*
X168942100Y-68640228D01*
X168921513Y-68563394D01*
X168921513Y-68563393D01*
X168881740Y-68494506D01*
X168881738Y-68494504D01*
X168881737Y-68494502D01*
X168345496Y-67958261D01*
X168276605Y-67918485D01*
X168199775Y-67897900D01*
X168199772Y-67897900D01*
X165746496Y-67897900D01*
X165679457Y-67878215D01*
X165658815Y-67861581D01*
X165491578Y-67694344D01*
X165458093Y-67633021D01*
X165455259Y-67606663D01*
X165455259Y-67278733D01*
X165474944Y-67211694D01*
X165485540Y-67197537D01*
X165578536Y-67090214D01*
X165638324Y-66959298D01*
X165658806Y-66816841D01*
X165638324Y-66674384D01*
X165578536Y-66543468D01*
X165484287Y-66434698D01*
X165363212Y-66356888D01*
X165363210Y-66356887D01*
X165363208Y-66356886D01*
X165363209Y-66356886D01*
X165225122Y-66316341D01*
X165225120Y-66316341D01*
X165149540Y-66316341D01*
X165082501Y-66296656D01*
X165036746Y-66243852D01*
X165026802Y-66174694D01*
X165055827Y-66111138D01*
X165082501Y-66088025D01*
X165092883Y-66081353D01*
X165164386Y-66035401D01*
X165258635Y-65926631D01*
X165318423Y-65795715D01*
X165338905Y-65653258D01*
X165318423Y-65510801D01*
X165258635Y-65379885D01*
X165164386Y-65271115D01*
X165043311Y-65193305D01*
X165043309Y-65193304D01*
X165043307Y-65193303D01*
X165043308Y-65193303D01*
X164905221Y-65152758D01*
X164905219Y-65152758D01*
X164761297Y-65152758D01*
X164761294Y-65152758D01*
X164623207Y-65193303D01*
X164502131Y-65271114D01*
X164407881Y-65379884D01*
X164407880Y-65379886D01*
X164348092Y-65510801D01*
X164327611Y-65653258D01*
X164327611Y-65653262D01*
X164328634Y-65660379D01*
X164318689Y-65729537D01*
X164293577Y-65765703D01*
X162768262Y-67291018D01*
X162768260Y-67291022D01*
X162728487Y-67359909D01*
X162728487Y-67359910D01*
X162707900Y-67436744D01*
X153079702Y-67436744D01*
X152537319Y-66894361D01*
X152503834Y-66833038D01*
X152501000Y-66806680D01*
X152501000Y-66229295D01*
X152520685Y-66162256D01*
X152531286Y-66148093D01*
X152535377Y-66143373D01*
X152595165Y-66012457D01*
X152615647Y-65870000D01*
X152595165Y-65727543D01*
X152535377Y-65596627D01*
X152441128Y-65487857D01*
X152320053Y-65410047D01*
X152320051Y-65410046D01*
X152320049Y-65410045D01*
X152320050Y-65410045D01*
X152181963Y-65369500D01*
X152181961Y-65369500D01*
X152038039Y-65369500D01*
X152038036Y-65369500D01*
X151899949Y-65410045D01*
X151778873Y-65487856D01*
X151684623Y-65596626D01*
X151684622Y-65596628D01*
X151624834Y-65727543D01*
X151604353Y-65870000D01*
X142662759Y-65870000D01*
X143771941Y-64760819D01*
X143833264Y-64727334D01*
X143859622Y-64724500D01*
X187585810Y-64724500D01*
X187652849Y-64744185D01*
X187695167Y-64790045D01*
X187717994Y-64832751D01*
X187723203Y-64842495D01*
X187851352Y-64998647D01*
X187926353Y-65060198D01*
X188007506Y-65126798D01*
X188007509Y-65126799D01*
X188007511Y-65126801D01*
X188185654Y-65222021D01*
X188185656Y-65222021D01*
X188185659Y-65222023D01*
X188378967Y-65280662D01*
X188580000Y-65300462D01*
X188781033Y-65280662D01*
X188974341Y-65222023D01*
X188979262Y-65219393D01*
X189103926Y-65152758D01*
X189152494Y-65126798D01*
X189308647Y-64998647D01*
X189436798Y-64842494D01*
X189532023Y-64664341D01*
X189590662Y-64471033D01*
X189610462Y-64270000D01*
X191049538Y-64270000D01*
X191069337Y-64471031D01*
X191127978Y-64664345D01*
X191223198Y-64842488D01*
X191223203Y-64842495D01*
X191351352Y-64998647D01*
X191426353Y-65060198D01*
X191507506Y-65126798D01*
X191507509Y-65126799D01*
X191507511Y-65126801D01*
X191531479Y-65139611D01*
X191559951Y-65154830D01*
X191609796Y-65203791D01*
X191625500Y-65264189D01*
X191625500Y-65815809D01*
X191605815Y-65882848D01*
X191559955Y-65925166D01*
X191507504Y-65953202D01*
X191351352Y-66081352D01*
X191223203Y-66237504D01*
X191223198Y-66237511D01*
X191127978Y-66415654D01*
X191069337Y-66608968D01*
X191049538Y-66810000D01*
X191069337Y-67011031D01*
X191127978Y-67204345D01*
X191223198Y-67382488D01*
X191223201Y-67382492D01*
X191223202Y-67382494D01*
X191242688Y-67406238D01*
X191351352Y-67538647D01*
X191434231Y-67606663D01*
X191507506Y-67666798D01*
X191507509Y-67666799D01*
X191507511Y-67666801D01*
X191531479Y-67679611D01*
X191559951Y-67694830D01*
X191609796Y-67743791D01*
X191625500Y-67804189D01*
X191625500Y-68355809D01*
X191605815Y-68422848D01*
X191559955Y-68465166D01*
X191507504Y-68493202D01*
X191351352Y-68621352D01*
X191223203Y-68777504D01*
X191223198Y-68777511D01*
X191127978Y-68955654D01*
X191069337Y-69148968D01*
X191049538Y-69350000D01*
X191069337Y-69551031D01*
X191127978Y-69744345D01*
X191223198Y-69922488D01*
X191223203Y-69922495D01*
X191351352Y-70078647D01*
X191369356Y-70093422D01*
X191507506Y-70206798D01*
X191507509Y-70206799D01*
X191507511Y-70206801D01*
X191685654Y-70302021D01*
X191685656Y-70302021D01*
X191685659Y-70302023D01*
X191878967Y-70360662D01*
X192080000Y-70380462D01*
X192281033Y-70360662D01*
X192474341Y-70302023D01*
X192652494Y-70206798D01*
X192808647Y-70078647D01*
X192936798Y-69922494D01*
X193009582Y-69786325D01*
X193032021Y-69744345D01*
X193032021Y-69744344D01*
X193032023Y-69744341D01*
X193090662Y-69551033D01*
X193110462Y-69350000D01*
X193090662Y-69148967D01*
X193032023Y-68955659D01*
X193032021Y-68955656D01*
X193032021Y-68955654D01*
X192936801Y-68777511D01*
X192936799Y-68777509D01*
X192936798Y-68777506D01*
X192860855Y-68684969D01*
X192808647Y-68621352D01*
X192652495Y-68493202D01*
X192600045Y-68465166D01*
X192550201Y-68416203D01*
X192534500Y-68355809D01*
X192534500Y-67804189D01*
X192554185Y-67737150D01*
X192600047Y-67694830D01*
X192652494Y-67666798D01*
X192808647Y-67538647D01*
X192936798Y-67382494D01*
X193028093Y-67211694D01*
X193032021Y-67204345D01*
X193032021Y-67204344D01*
X193032023Y-67204341D01*
X193090662Y-67011033D01*
X193110462Y-66810000D01*
X193090662Y-66608967D01*
X193032023Y-66415659D01*
X193032021Y-66415656D01*
X193032021Y-66415654D01*
X192936801Y-66237511D01*
X192936799Y-66237509D01*
X192936798Y-66237506D01*
X192868068Y-66153758D01*
X192808647Y-66081352D01*
X192652495Y-65953202D01*
X192600045Y-65925166D01*
X192550201Y-65876203D01*
X192534500Y-65815809D01*
X192534500Y-65264189D01*
X192554185Y-65197150D01*
X192600047Y-65154830D01*
X192652494Y-65126798D01*
X192808647Y-64998647D01*
X192936798Y-64842494D01*
X193032023Y-64664341D01*
X193090662Y-64471033D01*
X193110462Y-64270000D01*
X194549538Y-64270000D01*
X194569337Y-64471031D01*
X194627978Y-64664345D01*
X194723198Y-64842488D01*
X194723203Y-64842495D01*
X194851352Y-64998647D01*
X194926353Y-65060198D01*
X195007506Y-65126798D01*
X195007509Y-65126799D01*
X195007511Y-65126801D01*
X195031479Y-65139611D01*
X195059951Y-65154830D01*
X195109796Y-65203791D01*
X195125500Y-65264189D01*
X195125500Y-65815809D01*
X195105815Y-65882848D01*
X195059955Y-65925166D01*
X195007504Y-65953202D01*
X194851352Y-66081352D01*
X194723203Y-66237504D01*
X194723198Y-66237511D01*
X194627978Y-66415654D01*
X194569337Y-66608968D01*
X194549538Y-66810000D01*
X194569337Y-67011031D01*
X194627978Y-67204345D01*
X194723198Y-67382488D01*
X194723201Y-67382492D01*
X194723202Y-67382494D01*
X194742688Y-67406238D01*
X194851352Y-67538647D01*
X194934231Y-67606663D01*
X195007506Y-67666798D01*
X195007509Y-67666799D01*
X195007511Y-67666801D01*
X195031479Y-67679611D01*
X195059951Y-67694830D01*
X195109796Y-67743791D01*
X195125500Y-67804189D01*
X195125500Y-68355809D01*
X195105815Y-68422848D01*
X195059955Y-68465166D01*
X195007504Y-68493202D01*
X194851352Y-68621352D01*
X194723203Y-68777504D01*
X194723198Y-68777511D01*
X194627978Y-68955654D01*
X194569337Y-69148968D01*
X194549538Y-69350000D01*
X194569337Y-69551031D01*
X194627978Y-69744345D01*
X194723198Y-69922488D01*
X194723203Y-69922495D01*
X194851352Y-70078647D01*
X194869356Y-70093422D01*
X195007506Y-70206798D01*
X195007509Y-70206799D01*
X195007511Y-70206801D01*
X195185654Y-70302021D01*
X195185656Y-70302021D01*
X195185659Y-70302023D01*
X195378967Y-70360662D01*
X195580000Y-70380462D01*
X195781033Y-70360662D01*
X195974341Y-70302023D01*
X196067461Y-70252249D01*
X199293710Y-70252249D01*
X199293710Y-70252250D01*
X199312833Y-70470832D01*
X199312835Y-70470842D01*
X199369621Y-70682774D01*
X199369625Y-70682783D01*
X199462354Y-70881642D01*
X199506503Y-70944693D01*
X200069537Y-70381659D01*
X200086575Y-70445243D01*
X200152401Y-70559257D01*
X200245493Y-70652349D01*
X200359507Y-70718175D01*
X200423090Y-70735212D01*
X199860055Y-71298246D01*
X199923101Y-71342392D01*
X199923105Y-71342394D01*
X200121966Y-71435124D01*
X200121975Y-71435128D01*
X200333907Y-71491914D01*
X200333917Y-71491916D01*
X200552499Y-71511040D01*
X200552501Y-71511040D01*
X200771082Y-71491916D01*
X200771092Y-71491914D01*
X200983024Y-71435128D01*
X200983033Y-71435124D01*
X201181892Y-71342395D01*
X201244943Y-71298245D01*
X200681910Y-70735212D01*
X200745493Y-70718175D01*
X200859507Y-70652349D01*
X200952599Y-70559257D01*
X201018425Y-70445243D01*
X201035462Y-70381659D01*
X201598495Y-70944692D01*
X201642645Y-70881642D01*
X201735374Y-70682783D01*
X201735378Y-70682774D01*
X201792164Y-70470842D01*
X201792166Y-70470832D01*
X201811290Y-70252250D01*
X201811290Y-70252249D01*
X201792166Y-70033667D01*
X201792164Y-70033657D01*
X201735378Y-69821725D01*
X201735374Y-69821716D01*
X201642644Y-69622855D01*
X201642642Y-69622851D01*
X201598496Y-69559805D01*
X201035462Y-70122839D01*
X201018425Y-70059257D01*
X200952599Y-69945243D01*
X200859507Y-69852151D01*
X200745493Y-69786325D01*
X200681909Y-69769287D01*
X201244943Y-69206253D01*
X201181892Y-69162104D01*
X201051218Y-69101170D01*
X201801999Y-69101170D01*
X201830840Y-69246157D01*
X201830843Y-69246167D01*
X201887412Y-69382738D01*
X201887419Y-69382751D01*
X201969548Y-69505665D01*
X201969551Y-69505669D01*
X202074080Y-69610198D01*
X202074084Y-69610201D01*
X202196998Y-69692330D01*
X202197011Y-69692337D01*
X202322561Y-69744341D01*
X202333587Y-69748908D01*
X202333591Y-69748908D01*
X202333592Y-69748909D01*
X202478579Y-69777750D01*
X202478582Y-69777750D01*
X202626420Y-69777750D01*
X202723962Y-69758346D01*
X202771413Y-69748908D01*
X202907995Y-69692334D01*
X203030916Y-69610201D01*
X203135451Y-69505666D01*
X203217584Y-69382745D01*
X203274158Y-69246163D01*
X203288859Y-69172256D01*
X203303000Y-69101170D01*
X203303000Y-68953329D01*
X203274159Y-68808342D01*
X203274158Y-68808341D01*
X203274158Y-68808337D01*
X203270705Y-68800000D01*
X203217587Y-68671761D01*
X203217580Y-68671748D01*
X203135451Y-68548834D01*
X203135448Y-68548830D01*
X203030919Y-68444301D01*
X203030915Y-68444298D01*
X202908001Y-68362169D01*
X202907988Y-68362162D01*
X202771417Y-68305593D01*
X202771407Y-68305590D01*
X202626420Y-68276750D01*
X202626418Y-68276750D01*
X202478582Y-68276750D01*
X202478580Y-68276750D01*
X202333592Y-68305590D01*
X202333582Y-68305593D01*
X202197011Y-68362162D01*
X202196998Y-68362169D01*
X202074084Y-68444298D01*
X202074080Y-68444301D01*
X201969551Y-68548830D01*
X201969548Y-68548834D01*
X201887419Y-68671748D01*
X201887412Y-68671761D01*
X201830843Y-68808332D01*
X201830840Y-68808342D01*
X201802000Y-68953329D01*
X201802000Y-68953332D01*
X201802000Y-69101168D01*
X201802000Y-69101170D01*
X201801999Y-69101170D01*
X201051218Y-69101170D01*
X200983033Y-69069375D01*
X200983024Y-69069371D01*
X200771092Y-69012585D01*
X200771082Y-69012583D01*
X200552501Y-68993460D01*
X200552499Y-68993460D01*
X200333917Y-69012583D01*
X200333907Y-69012585D01*
X200121975Y-69069371D01*
X200121966Y-69069374D01*
X199923106Y-69162105D01*
X199923104Y-69162106D01*
X199860056Y-69206253D01*
X199860055Y-69206253D01*
X200423090Y-69769287D01*
X200359507Y-69786325D01*
X200245493Y-69852151D01*
X200152401Y-69945243D01*
X200086575Y-70059257D01*
X200069537Y-70122839D01*
X199506503Y-69559805D01*
X199506503Y-69559806D01*
X199462356Y-69622854D01*
X199462355Y-69622856D01*
X199369624Y-69821716D01*
X199369621Y-69821725D01*
X199312835Y-70033657D01*
X199312833Y-70033667D01*
X199293710Y-70252249D01*
X196067461Y-70252249D01*
X196152494Y-70206798D01*
X196308647Y-70078647D01*
X196436798Y-69922494D01*
X196509582Y-69786325D01*
X196532021Y-69744345D01*
X196532021Y-69744344D01*
X196532023Y-69744341D01*
X196590662Y-69551033D01*
X196610462Y-69350000D01*
X196590662Y-69148967D01*
X196532023Y-68955659D01*
X196532021Y-68955656D01*
X196532021Y-68955654D01*
X196436801Y-68777511D01*
X196436799Y-68777509D01*
X196436798Y-68777506D01*
X196360855Y-68684969D01*
X196308647Y-68621352D01*
X196152495Y-68493202D01*
X196100045Y-68465166D01*
X196050201Y-68416203D01*
X196034500Y-68355809D01*
X196034500Y-67804189D01*
X196054185Y-67737150D01*
X196100047Y-67694830D01*
X196152494Y-67666798D01*
X196308647Y-67538647D01*
X196436798Y-67382494D01*
X196528093Y-67211694D01*
X196532021Y-67204345D01*
X196532021Y-67204344D01*
X196532023Y-67204341D01*
X196590662Y-67011033D01*
X196610462Y-66810000D01*
X196590662Y-66608967D01*
X196532023Y-66415659D01*
X196532021Y-66415656D01*
X196532021Y-66415654D01*
X196436801Y-66237511D01*
X196436799Y-66237509D01*
X196436798Y-66237506D01*
X196368068Y-66153758D01*
X196308647Y-66081352D01*
X196152495Y-65953202D01*
X196100045Y-65925166D01*
X196050201Y-65876203D01*
X196034500Y-65815809D01*
X196034500Y-65752250D01*
X199593382Y-65752250D01*
X199611810Y-65939365D01*
X199611811Y-65939367D01*
X199666391Y-66119290D01*
X199755018Y-66285101D01*
X199755023Y-66285107D01*
X199874300Y-66430449D01*
X200019642Y-66549726D01*
X200019648Y-66549731D01*
X200190833Y-66641231D01*
X200190051Y-66642692D01*
X200238246Y-66681530D01*
X200260311Y-66747824D01*
X200243032Y-66815524D01*
X200191894Y-66863134D01*
X200186339Y-66865670D01*
X200019648Y-66954768D01*
X200019642Y-66954773D01*
X199874300Y-67074050D01*
X199755023Y-67219392D01*
X199755018Y-67219398D01*
X199666391Y-67385209D01*
X199611811Y-67565132D01*
X199611810Y-67565134D01*
X199593382Y-67752250D01*
X199611810Y-67939365D01*
X199611811Y-67939367D01*
X199666391Y-68119290D01*
X199755018Y-68285101D01*
X199755023Y-68285107D01*
X199874300Y-68430449D01*
X200019642Y-68549726D01*
X200019648Y-68549731D01*
X200153643Y-68621352D01*
X200185461Y-68638359D01*
X200365382Y-68692938D01*
X200365384Y-68692939D01*
X200382160Y-68694591D01*
X200552500Y-68711368D01*
X200739615Y-68692939D01*
X200919539Y-68638359D01*
X201030328Y-68579141D01*
X201085351Y-68549731D01*
X201085353Y-68549728D01*
X201085357Y-68549727D01*
X201230699Y-68430449D01*
X201349977Y-68285107D01*
X201349978Y-68285103D01*
X201349981Y-68285101D01*
X201438608Y-68119290D01*
X201438609Y-68119289D01*
X201493189Y-67939365D01*
X201511618Y-67752250D01*
X201493189Y-67565135D01*
X201438609Y-67385211D01*
X201433407Y-67375478D01*
X201349981Y-67219398D01*
X201349976Y-67219392D01*
X201348537Y-67217639D01*
X201310199Y-67170923D01*
X201230699Y-67074050D01*
X201085357Y-66954773D01*
X201085351Y-66954768D01*
X200914167Y-66863269D01*
X200914949Y-66861805D01*
X200866759Y-66822979D01*
X200844688Y-66756687D01*
X200861962Y-66688986D01*
X200913095Y-66641371D01*
X200918659Y-66638829D01*
X200919537Y-66638359D01*
X200919539Y-66638359D01*
X200978948Y-66606604D01*
X201085351Y-66549731D01*
X201085353Y-66549728D01*
X201085357Y-66549727D01*
X201230699Y-66430449D01*
X201349977Y-66285107D01*
X201349978Y-66285103D01*
X201349981Y-66285101D01*
X201408994Y-66174694D01*
X201438609Y-66119289D01*
X201493189Y-65939365D01*
X201511618Y-65752250D01*
X201493189Y-65565135D01*
X201438609Y-65385211D01*
X201430211Y-65369500D01*
X201349981Y-65219398D01*
X201349976Y-65219392D01*
X201230699Y-65074050D01*
X201085357Y-64954773D01*
X201085351Y-64954768D01*
X200919540Y-64866141D01*
X200739617Y-64811561D01*
X200739615Y-64811560D01*
X200552500Y-64793132D01*
X200365384Y-64811560D01*
X200365382Y-64811561D01*
X200185459Y-64866141D01*
X200019648Y-64954768D01*
X200019642Y-64954773D01*
X199874300Y-65074050D01*
X199755023Y-65219392D01*
X199755018Y-65219398D01*
X199666391Y-65385209D01*
X199611811Y-65565132D01*
X199611810Y-65565134D01*
X199593382Y-65752250D01*
X196034500Y-65752250D01*
X196034500Y-65264189D01*
X196054185Y-65197150D01*
X196100047Y-65154830D01*
X196152494Y-65126798D01*
X196308647Y-64998647D01*
X196436798Y-64842494D01*
X196532023Y-64664341D01*
X196566353Y-64551170D01*
X201801999Y-64551170D01*
X201830840Y-64696157D01*
X201830843Y-64696167D01*
X201887412Y-64832738D01*
X201887419Y-64832751D01*
X201969548Y-64955665D01*
X201969551Y-64955669D01*
X202074080Y-65060198D01*
X202074084Y-65060201D01*
X202196998Y-65142330D01*
X202197011Y-65142337D01*
X202311760Y-65189867D01*
X202333587Y-65198908D01*
X202333591Y-65198908D01*
X202333592Y-65198909D01*
X202478579Y-65227750D01*
X202478582Y-65227750D01*
X202626420Y-65227750D01*
X202746865Y-65203791D01*
X202771413Y-65198908D01*
X202907995Y-65142334D01*
X203030916Y-65060201D01*
X203135451Y-64955666D01*
X203217584Y-64832745D01*
X203274158Y-64696163D01*
X203303000Y-64551168D01*
X203303000Y-64403332D01*
X203303000Y-64403329D01*
X203274159Y-64258342D01*
X203274158Y-64258341D01*
X203274158Y-64258337D01*
X203247972Y-64195118D01*
X203217587Y-64121761D01*
X203217580Y-64121748D01*
X203135451Y-63998834D01*
X203135448Y-63998830D01*
X203030919Y-63894301D01*
X203030915Y-63894298D01*
X202908001Y-63812169D01*
X202907988Y-63812162D01*
X202771417Y-63755593D01*
X202771407Y-63755590D01*
X202626420Y-63726750D01*
X202626418Y-63726750D01*
X202478582Y-63726750D01*
X202478580Y-63726750D01*
X202333592Y-63755590D01*
X202333582Y-63755593D01*
X202197011Y-63812162D01*
X202196998Y-63812169D01*
X202074084Y-63894298D01*
X202074080Y-63894301D01*
X201969551Y-63998830D01*
X201969548Y-63998834D01*
X201887419Y-64121748D01*
X201887412Y-64121761D01*
X201830843Y-64258332D01*
X201830840Y-64258342D01*
X201802000Y-64403329D01*
X201802000Y-64403332D01*
X201802000Y-64551168D01*
X201802000Y-64551170D01*
X201801999Y-64551170D01*
X196566353Y-64551170D01*
X196590662Y-64471033D01*
X196610462Y-64270000D01*
X196590662Y-64068967D01*
X196532023Y-63875659D01*
X196532021Y-63875656D01*
X196532021Y-63875654D01*
X196436801Y-63697511D01*
X196436799Y-63697509D01*
X196436798Y-63697506D01*
X196397824Y-63650016D01*
X196308647Y-63541352D01*
X196152495Y-63413203D01*
X196152488Y-63413198D01*
X195974345Y-63317978D01*
X195781031Y-63259337D01*
X195580000Y-63239538D01*
X195378968Y-63259337D01*
X195185654Y-63317978D01*
X195007511Y-63413198D01*
X195007504Y-63413203D01*
X194851352Y-63541352D01*
X194723203Y-63697504D01*
X194723198Y-63697511D01*
X194627978Y-63875654D01*
X194569337Y-64068968D01*
X194549538Y-64270000D01*
X193110462Y-64270000D01*
X193090662Y-64068967D01*
X193032023Y-63875659D01*
X193032021Y-63875656D01*
X193032021Y-63875654D01*
X192936801Y-63697511D01*
X192936799Y-63697509D01*
X192936798Y-63697506D01*
X192897824Y-63650016D01*
X192808647Y-63541352D01*
X192652495Y-63413203D01*
X192652488Y-63413198D01*
X192474345Y-63317978D01*
X192281031Y-63259337D01*
X192080000Y-63239538D01*
X191878968Y-63259337D01*
X191685654Y-63317978D01*
X191507511Y-63413198D01*
X191507504Y-63413203D01*
X191351352Y-63541352D01*
X191223203Y-63697504D01*
X191223198Y-63697511D01*
X191127978Y-63875654D01*
X191069337Y-64068968D01*
X191049538Y-64270000D01*
X189610462Y-64270000D01*
X189590662Y-64068967D01*
X189532023Y-63875659D01*
X189532021Y-63875656D01*
X189532021Y-63875654D01*
X189436801Y-63697511D01*
X189436799Y-63697509D01*
X189436798Y-63697506D01*
X189397824Y-63650016D01*
X189308647Y-63541352D01*
X189152495Y-63413203D01*
X189152488Y-63413198D01*
X188974345Y-63317978D01*
X188781031Y-63259337D01*
X188580000Y-63239538D01*
X188378968Y-63259337D01*
X188185654Y-63317978D01*
X188007511Y-63413198D01*
X188007504Y-63413203D01*
X187851352Y-63541352D01*
X187723203Y-63697504D01*
X187695169Y-63749953D01*
X187646206Y-63799797D01*
X187585810Y-63815500D01*
X143560164Y-63815500D01*
X143444569Y-63846473D01*
X143444566Y-63846474D01*
X143340933Y-63906307D01*
X143340927Y-63906311D01*
X143256307Y-63990932D01*
X141525814Y-65721424D01*
X141464491Y-65754909D01*
X141394799Y-65749925D01*
X141393421Y-65749400D01*
X141382924Y-65745334D01*
X141182134Y-65707800D01*
X140977866Y-65707800D01*
X140777076Y-65745334D01*
X140777073Y-65745334D01*
X140777073Y-65745335D01*
X140586604Y-65819122D01*
X140586598Y-65819125D01*
X140412931Y-65926655D01*
X140412929Y-65926657D01*
X140261981Y-66064264D01*
X140261977Y-66064268D01*
X140138876Y-66227280D01*
X140047830Y-66410123D01*
X140047825Y-66410136D01*
X139991924Y-66606604D01*
X139973078Y-66809999D01*
X137000500Y-66809999D01*
X137000500Y-62478497D01*
X199598000Y-62478497D01*
X199598000Y-64026002D01*
X199609631Y-64084479D01*
X199609632Y-64084480D01*
X199653947Y-64150802D01*
X199720269Y-64195117D01*
X199720270Y-64195118D01*
X199778747Y-64206749D01*
X199778750Y-64206750D01*
X199778752Y-64206750D01*
X201326250Y-64206750D01*
X201326251Y-64206749D01*
X201341068Y-64203802D01*
X201384729Y-64195118D01*
X201384729Y-64195117D01*
X201384731Y-64195117D01*
X201451052Y-64150802D01*
X201495367Y-64084481D01*
X201495367Y-64084479D01*
X201495368Y-64084479D01*
X201506999Y-64026002D01*
X201507000Y-64026000D01*
X201507000Y-62478499D01*
X201506999Y-62478497D01*
X201495368Y-62420020D01*
X201495367Y-62420019D01*
X201451052Y-62353697D01*
X201384730Y-62309382D01*
X201384729Y-62309381D01*
X201326252Y-62297750D01*
X201326248Y-62297750D01*
X199778752Y-62297750D01*
X199778747Y-62297750D01*
X199720270Y-62309381D01*
X199720269Y-62309382D01*
X199653947Y-62353697D01*
X199609632Y-62420019D01*
X199609631Y-62420020D01*
X199598000Y-62478497D01*
X137000500Y-62478497D01*
X137000500Y-60808235D01*
X200844000Y-60808235D01*
X200844000Y-60996264D01*
X200880679Y-61180659D01*
X200880682Y-61180671D01*
X200952629Y-61354368D01*
X200952636Y-61354381D01*
X201057091Y-61510707D01*
X201057094Y-61510711D01*
X201190038Y-61643655D01*
X201190042Y-61643658D01*
X201346368Y-61748113D01*
X201346381Y-61748120D01*
X201520078Y-61820067D01*
X201520083Y-61820069D01*
X201704485Y-61856749D01*
X201704488Y-61856750D01*
X201704490Y-61856750D01*
X203400512Y-61856750D01*
X203400513Y-61856749D01*
X203584917Y-61820069D01*
X203758625Y-61748117D01*
X203914958Y-61643658D01*
X204047908Y-61510708D01*
X204152367Y-61354375D01*
X204224319Y-61180667D01*
X204261000Y-60996260D01*
X204261000Y-60808240D01*
X204261000Y-60808237D01*
X204260999Y-60808235D01*
X204224320Y-60623840D01*
X204224319Y-60623833D01*
X204224317Y-60623828D01*
X204152370Y-60450131D01*
X204152363Y-60450118D01*
X204047908Y-60293792D01*
X204047905Y-60293788D01*
X203914961Y-60160844D01*
X203914957Y-60160841D01*
X203758631Y-60056386D01*
X203758618Y-60056379D01*
X203584921Y-59984432D01*
X203584909Y-59984429D01*
X203400513Y-59947750D01*
X203400510Y-59947750D01*
X201704490Y-59947750D01*
X201704487Y-59947750D01*
X201520090Y-59984429D01*
X201520078Y-59984432D01*
X201346381Y-60056379D01*
X201346368Y-60056386D01*
X201190042Y-60160841D01*
X201190038Y-60160844D01*
X201057094Y-60293788D01*
X201057091Y-60293792D01*
X200952636Y-60450118D01*
X200952629Y-60450131D01*
X200880682Y-60623828D01*
X200880679Y-60623840D01*
X200844000Y-60808235D01*
X137000500Y-60808235D01*
X137000500Y-51448711D01*
X139809500Y-51448711D01*
X139809500Y-51691288D01*
X139841161Y-51931785D01*
X139903947Y-52166104D01*
X139996773Y-52390205D01*
X139996777Y-52390214D01*
X139997804Y-52391992D01*
X140118064Y-52600289D01*
X140118066Y-52600292D01*
X140118067Y-52600293D01*
X140265733Y-52792736D01*
X140265739Y-52792743D01*
X140437256Y-52964260D01*
X140437262Y-52964265D01*
X140629711Y-53111936D01*
X140839788Y-53233224D01*
X141063900Y-53326054D01*
X141298211Y-53388838D01*
X141478586Y-53412584D01*
X141538711Y-53420500D01*
X141538712Y-53420500D01*
X141781289Y-53420500D01*
X141829388Y-53414167D01*
X142021789Y-53388838D01*
X142256100Y-53326054D01*
X142480212Y-53233224D01*
X142690289Y-53111936D01*
X142882738Y-52964265D01*
X142957004Y-52889999D01*
X177468178Y-52889999D01*
X177468178Y-52890000D01*
X177487024Y-53093395D01*
X177542925Y-53289863D01*
X177542930Y-53289876D01*
X177560944Y-53326052D01*
X177633976Y-53472719D01*
X177664250Y-53512809D01*
X177757077Y-53635731D01*
X177757081Y-53635735D01*
X177908029Y-53773342D01*
X177908031Y-53773344D01*
X178081698Y-53880874D01*
X178081704Y-53880877D01*
X178122055Y-53896508D01*
X178272176Y-53954666D01*
X178472966Y-53992200D01*
X178472968Y-53992200D01*
X178677232Y-53992200D01*
X178677234Y-53992200D01*
X178878024Y-53954666D01*
X179068498Y-53880876D01*
X179242170Y-53773343D01*
X179393125Y-53635729D01*
X179516224Y-53472719D01*
X179607274Y-53289866D01*
X179663175Y-53093396D01*
X179682022Y-52890000D01*
X179682021Y-52889994D01*
X182168596Y-52889994D01*
X182168596Y-52890005D01*
X182187778Y-53121499D01*
X182244804Y-53346691D01*
X182338115Y-53559418D01*
X182422684Y-53688861D01*
X182975818Y-53135727D01*
X183001116Y-53196801D01*
X183071999Y-53302885D01*
X183162215Y-53393101D01*
X183268299Y-53463984D01*
X183329371Y-53489281D01*
X182775089Y-54043562D01*
X182775090Y-54043563D01*
X182805812Y-54067475D01*
X182805818Y-54067480D01*
X183010107Y-54178035D01*
X183010117Y-54178040D01*
X183229821Y-54253464D01*
X183458953Y-54291700D01*
X183691247Y-54291700D01*
X183920378Y-54253464D01*
X184140082Y-54178040D01*
X184140087Y-54178038D01*
X184344388Y-54067475D01*
X184375108Y-54043563D01*
X184375108Y-54043562D01*
X183820828Y-53489281D01*
X183881901Y-53463984D01*
X183987985Y-53393101D01*
X184078201Y-53302885D01*
X184149084Y-53196801D01*
X184174381Y-53135728D01*
X184727514Y-53688861D01*
X184812080Y-53559425D01*
X184812085Y-53559417D01*
X184905395Y-53346691D01*
X184962421Y-53121499D01*
X184981604Y-52890005D01*
X184981604Y-52889994D01*
X184962421Y-52658500D01*
X184905395Y-52433308D01*
X184812082Y-52220576D01*
X184727514Y-52091137D01*
X184174380Y-52644270D01*
X184149084Y-52583199D01*
X184078201Y-52477115D01*
X183987985Y-52386899D01*
X183881901Y-52316016D01*
X183820827Y-52290718D01*
X184375109Y-51736436D01*
X184375109Y-51736435D01*
X184344386Y-51712523D01*
X184344381Y-51712519D01*
X184140092Y-51601964D01*
X184140082Y-51601959D01*
X183920378Y-51526535D01*
X183691247Y-51488300D01*
X183458953Y-51488300D01*
X183229821Y-51526535D01*
X183010117Y-51601959D01*
X183010107Y-51601964D01*
X182805817Y-51712520D01*
X182805806Y-51712527D01*
X182775090Y-51736434D01*
X182775090Y-51736436D01*
X183329372Y-52290718D01*
X183268299Y-52316016D01*
X183162215Y-52386899D01*
X183071999Y-52477115D01*
X183001116Y-52583199D01*
X182975818Y-52644271D01*
X182422684Y-52091137D01*
X182338116Y-52220578D01*
X182244804Y-52433308D01*
X182187778Y-52658500D01*
X182168596Y-52889994D01*
X179682021Y-52889994D01*
X179663175Y-52686604D01*
X179653023Y-52650923D01*
X179607274Y-52490134D01*
X179600791Y-52477115D01*
X179555869Y-52386899D01*
X179516224Y-52307281D01*
X179393125Y-52144271D01*
X179393122Y-52144268D01*
X179393118Y-52144264D01*
X179242170Y-52006657D01*
X179242168Y-52006655D01*
X179068501Y-51899125D01*
X179068495Y-51899122D01*
X178918377Y-51840966D01*
X178878024Y-51825334D01*
X178677234Y-51787800D01*
X178472966Y-51787800D01*
X178272176Y-51825334D01*
X178272173Y-51825334D01*
X178272173Y-51825335D01*
X178081704Y-51899122D01*
X178081698Y-51899125D01*
X177908031Y-52006655D01*
X177908029Y-52006657D01*
X177757081Y-52144264D01*
X177757077Y-52144268D01*
X177633976Y-52307280D01*
X177542930Y-52490123D01*
X177542925Y-52490136D01*
X177487024Y-52686604D01*
X177468178Y-52889999D01*
X142957004Y-52889999D01*
X143054265Y-52792738D01*
X143201936Y-52600289D01*
X143323224Y-52390212D01*
X143416054Y-52166100D01*
X143478838Y-51931789D01*
X143490264Y-51845000D01*
X153139402Y-51845000D01*
X153159738Y-52038483D01*
X153219856Y-52223510D01*
X153219857Y-52223511D01*
X153268222Y-52307281D01*
X153317130Y-52391992D01*
X153354331Y-52433308D01*
X153447302Y-52536564D01*
X153447305Y-52536566D01*
X153447308Y-52536569D01*
X153565352Y-52622333D01*
X153604702Y-52650923D01*
X153672926Y-52681297D01*
X153782429Y-52730051D01*
X153972726Y-52770500D01*
X154167274Y-52770500D01*
X154357571Y-52730051D01*
X154535299Y-52650922D01*
X154692692Y-52536569D01*
X154822870Y-52391992D01*
X154920144Y-52223508D01*
X154980262Y-52038482D01*
X155000598Y-51845000D01*
X158139402Y-51845000D01*
X158159738Y-52038483D01*
X158219856Y-52223510D01*
X158219857Y-52223511D01*
X158268222Y-52307281D01*
X158317130Y-52391992D01*
X158354331Y-52433308D01*
X158447302Y-52536564D01*
X158447305Y-52536566D01*
X158447308Y-52536569D01*
X158565352Y-52622333D01*
X158604702Y-52650923D01*
X158672926Y-52681297D01*
X158782429Y-52730051D01*
X158972726Y-52770500D01*
X159167274Y-52770500D01*
X159357571Y-52730051D01*
X159535299Y-52650922D01*
X159692692Y-52536569D01*
X159822870Y-52391992D01*
X159920144Y-52223508D01*
X159980262Y-52038482D01*
X160000598Y-51845000D01*
X159980262Y-51651518D01*
X159920144Y-51466492D01*
X159920143Y-51466491D01*
X159920143Y-51466489D01*
X159920142Y-51466488D01*
X159909878Y-51448711D01*
X200109500Y-51448711D01*
X200109500Y-51691288D01*
X200141161Y-51931785D01*
X200203947Y-52166104D01*
X200296773Y-52390205D01*
X200296777Y-52390214D01*
X200297804Y-52391992D01*
X200418064Y-52600289D01*
X200418066Y-52600292D01*
X200418067Y-52600293D01*
X200565733Y-52792736D01*
X200565739Y-52792743D01*
X200737256Y-52964260D01*
X200737262Y-52964265D01*
X200929711Y-53111936D01*
X201139788Y-53233224D01*
X201363900Y-53326054D01*
X201598211Y-53388838D01*
X201778586Y-53412584D01*
X201838711Y-53420500D01*
X201838712Y-53420500D01*
X202081289Y-53420500D01*
X202129388Y-53414167D01*
X202321789Y-53388838D01*
X202556100Y-53326054D01*
X202780212Y-53233224D01*
X202990289Y-53111936D01*
X203182738Y-52964265D01*
X203354265Y-52792738D01*
X203501936Y-52600289D01*
X203623224Y-52390212D01*
X203716054Y-52166100D01*
X203778838Y-51931789D01*
X203810500Y-51691288D01*
X203810500Y-51448712D01*
X203778838Y-51208211D01*
X203716054Y-50973900D01*
X203623224Y-50749788D01*
X203501936Y-50539711D01*
X203354265Y-50347262D01*
X203354260Y-50347256D01*
X203182743Y-50175739D01*
X203182736Y-50175733D01*
X202990293Y-50028067D01*
X202990292Y-50028066D01*
X202990289Y-50028064D01*
X202780212Y-49906776D01*
X202780205Y-49906773D01*
X202556104Y-49813947D01*
X202321785Y-49751161D01*
X202081289Y-49719500D01*
X202081288Y-49719500D01*
X201838712Y-49719500D01*
X201838711Y-49719500D01*
X201598214Y-49751161D01*
X201363895Y-49813947D01*
X201139794Y-49906773D01*
X201139785Y-49906777D01*
X200929706Y-50028067D01*
X200737263Y-50175733D01*
X200737256Y-50175739D01*
X200565739Y-50347256D01*
X200565733Y-50347263D01*
X200418067Y-50539706D01*
X200296777Y-50749785D01*
X200296773Y-50749794D01*
X200203947Y-50973895D01*
X200141161Y-51208214D01*
X200109500Y-51448711D01*
X159909878Y-51448711D01*
X159886202Y-51407703D01*
X159822870Y-51298008D01*
X159742019Y-51208214D01*
X159692697Y-51153435D01*
X159692694Y-51153433D01*
X159692693Y-51153432D01*
X159692692Y-51153431D01*
X159613995Y-51096254D01*
X159535297Y-51039076D01*
X159388894Y-50973895D01*
X159357571Y-50959949D01*
X159357569Y-50959948D01*
X159167274Y-50919500D01*
X158972726Y-50919500D01*
X158782431Y-50959948D01*
X158604702Y-51039076D01*
X158447305Y-51153433D01*
X158447302Y-51153435D01*
X158317129Y-51298009D01*
X158219857Y-51466488D01*
X158219856Y-51466489D01*
X158159738Y-51651516D01*
X158139402Y-51845000D01*
X155000598Y-51845000D01*
X154980262Y-51651518D01*
X154920144Y-51466492D01*
X154920143Y-51466491D01*
X154920143Y-51466489D01*
X154920142Y-51466488D01*
X154886202Y-51407703D01*
X154822870Y-51298008D01*
X154742019Y-51208214D01*
X154692697Y-51153435D01*
X154692694Y-51153433D01*
X154692693Y-51153432D01*
X154692692Y-51153431D01*
X154613995Y-51096254D01*
X154535297Y-51039076D01*
X154388894Y-50973895D01*
X154357571Y-50959949D01*
X154357569Y-50959948D01*
X154167274Y-50919500D01*
X153972726Y-50919500D01*
X153782431Y-50959948D01*
X153604702Y-51039076D01*
X153447305Y-51153433D01*
X153447302Y-51153435D01*
X153317129Y-51298009D01*
X153219857Y-51466488D01*
X153219856Y-51466489D01*
X153159738Y-51651516D01*
X153139402Y-51845000D01*
X143490264Y-51845000D01*
X143510500Y-51691288D01*
X143510500Y-51448712D01*
X143478838Y-51208211D01*
X143416054Y-50973900D01*
X143323224Y-50749788D01*
X143201936Y-50539711D01*
X143054265Y-50347262D01*
X143054260Y-50347256D01*
X142882743Y-50175739D01*
X142882736Y-50175733D01*
X142690293Y-50028067D01*
X142690292Y-50028066D01*
X142690289Y-50028064D01*
X142480212Y-49906776D01*
X142480205Y-49906773D01*
X142256104Y-49813947D01*
X142021785Y-49751161D01*
X141781289Y-49719500D01*
X141781288Y-49719500D01*
X141538712Y-49719500D01*
X141538711Y-49719500D01*
X141298214Y-49751161D01*
X141063895Y-49813947D01*
X140839794Y-49906773D01*
X140839785Y-49906777D01*
X140629706Y-50028067D01*
X140437263Y-50175733D01*
X140437256Y-50175739D01*
X140265739Y-50347256D01*
X140265733Y-50347263D01*
X140118067Y-50539706D01*
X139996777Y-50749785D01*
X139996773Y-50749794D01*
X139903947Y-50973895D01*
X139841161Y-51208214D01*
X139809500Y-51448711D01*
X137000500Y-51448711D01*
X137000500Y-48124500D01*
X137020185Y-48057461D01*
X137072989Y-48011706D01*
X137124500Y-48000500D01*
X152360331Y-48000500D01*
X152427370Y-48020185D01*
G37*
G04 #@! TD.AperFunction*
M02*
